<?xml version="1.0" standalone="no"?>
<!DOCTYPE svg PUBLIC "-//W3C//DTD SVG 20010904//EN"
 "http://www.w3.org/TR/2001/REC-SVG-20010904/DTD/svg10.dtd">
<svg version="1.0" xmlns="http://www.w3.org/2000/svg"
 width="900.000000pt" height="300.000000pt" viewBox="0 0 900.000000 300.000000"
 preserveAspectRatio="xMidYMid meet">
<metadata>
Created by potrace 1.16, written by Peter Selinger 2001-2019
</metadata>
<g transform="translate(0.000000,300.000000) scale(0.015000,-0.015000)"
fill="#000000" stroke="none">
<path d="M9686 17676 c-89 -33 -144 -100 -184 -225 l-28 -89 -171 -179 c-157
-164 -326 -353 -431 -479 -62 -77 -56 -117 28 -159 79 -40 154 -29 188 28 37
63 339 427 354 427 4 0 8 -21 8 -48 0 -72 35 -361 75 -616 36 -235 60 -454 72
-656 l6 -115 -44 37 c-266 223 -688 447 -1030 547 -213 62 -372 87 -652 102
-219 12 -597 6 -740 -12 -49 -6 -91 -9 -94 -6 -2 3 1 23 7 45 16 51 4 74 -53
101 -57 27 -110 26 -174 -3 -60 -28 -64 -34 -93 -142 l-21 -81 -85 -32 c-47
-18 -88 -39 -91 -46 -11 -30 9 -32 74 -5 38 15 71 26 74 24 4 -2 -1 -30 -12
-61 -183 -573 -235 -749 -285 -973 -15 -69 -29 -127 -31 -129 -6 -9 -86 75
-163 171 -154 191 -278 452 -384 808 -65 216 -196 787 -196 851 0 17 16 7 83
-53 45 -41 181 -159 302 -263 121 -104 262 -226 312 -272 86 -77 96 -83 136
-83 60 0 123 36 175 99 34 42 42 59 42 93 0 50 -8 58 -305 292 -269 211 -308
241 -488 370 -78 56 -165 119 -194 139 -29 21 -67 41 -86 44 -63 10 -161 -52
-202 -127 -37 -69 -27 -191 31 -395 57 -197 222 -661 306 -855 133 -312 314
-591 524 -810 l95 -98 -11 -69 c-23 -142 -50 -466 -56 -668 -10 -323 13 -476
105 -684 73 -167 217 -393 327 -513 40 -43 43 -60 12 -54 -13 3 -72 7 -133 11
-226 12 -481 52 -1065 166 -597 116 -849 151 -1235 170 -337 17 -1032 17
-1165 1 -341 -42 -592 -109 -819 -221 -88 -43 -101 -47 -101 -31 0 5 -39 89
-86 187 -221 457 -284 651 -284 870 0 249 68 350 430 643 253 205 508 418 580
485 35 33 93 87 129 120 193 181 371 414 433 569 30 75 32 89 33 201 0 118 -1
121 -35 184 -50 93 -140 155 -455 316 -172 87 -207 103 -358 159 -338 126
-617 138 -822 33 -152 -77 -277 -241 -331 -437 -26 -91 -26 -347 -1 -440 31
-117 93 -228 167 -301 78 -77 150 -115 263 -137 82 -16 109 -11 115 20 2 11
-15 17 -68 25 -221 35 -372 200 -426 467 -23 110 -15 304 16 401 68 216 187
342 370 390 65 17 231 20 316 4 128 -23 324 -94 488 -176 183 -91 496 -285
544 -335 71 -76 87 -225 38 -352 -44 -115 -127 -228 -281 -382 -77 -77 -173
-167 -214 -200 -41 -32 -97 -77 -125 -100 -28 -22 -145 -111 -261 -198 -411
-310 -617 -485 -698 -595 -164 -222 -193 -512 -87 -868 30 -103 95 -268 155
-400 105 -226 165 -363 165 -375 0 -7 -20 -40 -45 -73 -52 -70 -96 -156 -121
-240 -29 -94 -25 -272 9 -398 51 -191 178 -414 341 -599 l86 -97 0 -333 c0
-360 9 -540 40 -798 25 -208 43 -298 86 -430 64 -201 143 -285 266 -283 66 1
169 43 199 81 10 14 19 22 19 18 0 -3 8 2 18 12 152 154 259 484 342 1060 16
114 30 212 30 218 0 8 68 13 223 17 239 5 353 20 574 76 128 33 357 109 493
164 47 20 86 34 87 33 1 -1 7 -51 13 -111 33 -337 96 -636 195 -930 51 -150
120 -273 193 -342 107 -101 274 -79 404 53 71 73 101 119 173 269 136 282 236
645 316 1140 26 162 32 231 33 362 l1 163 95 34 c52 19 167 60 255 91 285 101
474 186 636 286 93 58 299 223 299 239 0 32 -37 14 -126 -60 -222 -187 -398
-276 -914 -460 -135 -48 -252 -90 -262 -94 -11 -5 -18 -1 -22 12 -9 27 -42 49
-151 98 -66 31 -95 39 -107 33 -35 -19 -17 -38 75 -82 87 -41 127 -68 127 -86
0 -5 -42 -25 -92 -46 -81 -34 -317 -141 -573 -260 -162 -76 -228 -105 -236
-105 -5 0 -9 24 -9 54 0 48 -3 57 -31 80 -67 57 -229 22 -280 -60 -19 -32 -21
-45 -17 -126 l6 -90 -45 -20 c-86 -38 -339 -120 -474 -153 -245 -60 -329 -70
-591 -70 -130 0 -239 3 -243 7 -9 8 66 513 101 687 25 123 24 148 -8 136 -28
-11 -50 -111 -112 -513 -24 -155 -46 -285 -50 -289 -9 -10 -158 25 -276 64
-122 41 -198 78 -293 140 l-67 45 6 107 7 108 -35 26 c-28 22 -46 27 -92 27
-31 0 -73 -7 -94 -16 l-37 -15 -33 38 c-136 159 -259 399 -297 581 -19 88 -19
243 0 315 32 124 105 222 186 251 42 15 119 78 119 97 0 24 227 116 385 157
345 88 722 101 1445 47 485 -37 630 -59 1340 -206 623 -129 907 -171 1252
-185 l167 -7 38 39 c21 22 43 48 48 58 10 17 15 15 65 -26 189 -152 422 -267
651 -320 115 -27 380 -32 494 -9 238 47 472 168 669 346 114 103 249 252 241
266 -4 5 -1 8 5 7 7 -2 80 85 164 193 83 108 194 247 246 309 52 62 109 129
125 150 17 20 73 91 126 156 203 250 357 514 415 709 23 75 27 110 28 210 1
107 -2 129 -28 205 -63 189 -176 365 -352 550 l-91 95 -7 160 c-3 88 -12 223
-20 300 -41 394 -56 1058 -29 1189 14 65 67 143 182 266 65 70 97 134 87 174
-8 34 -67 77 -113 82 -21 2 -56 -2 -77 -10z m-1771 -1476 c554 -37 1023 -215
1454 -550 123 -96 241 -208 241 -230 0 -11 10 -20 28 -24 45 -10 203 -217 286
-375 49 -94 94 -234 102 -318 14 -147 -40 -327 -163 -543 -44 -77 -231 -334
-285 -391 -7 -8 -34 -39 -59 -69 -26 -30 -79 -91 -119 -135 -74 -80 -196 -226
-345 -410 -353 -437 -567 -600 -865 -660 -122 -25 -331 -16 -455 18 -249 70
-478 217 -701 449 -160 166 -279 346 -368 553 -106 247 -122 424 -80 890 15
164 23 225 30 225 3 0 16 -7 29 -16 28 -18 65 -10 65 14 0 9 -20 30 -45 45
-25 16 -45 36 -45 45 0 35 31 212 61 344 42 193 103 401 229 783 l109 330 38
8 c116 25 600 34 858 17z m-2087 -4572 c19 -360 -196 -1106 -447 -1552 -39
-69 -121 -172 -151 -189 -27 -17 -31 -17 -55 -1 -73 47 -162 289 -205 556 -40
248 -90 714 -90 833 0 25 7 33 38 47 20 10 98 47 172 82 160 75 570 262 655
298 33 14 64 21 69 17 5 -5 11 -46 14 -91z m-3293 -566 c33 -20 162 -72 240
-96 70 -22 265 -66 295 -66 54 -1 55 -6 20 -171 -70 -338 -169 -678 -245 -846
-64 -140 -152 -253 -198 -253 -44 0 -101 115 -126 257 -20 110 -41 388 -41
543 0 230 12 650 19 650 3 0 20 -8 36 -18z"/>
<path d="M7359 14722 c-70 -36 -119 -105 -119 -166 0 -38 4 -45 43 -72 23 -16
67 -41 97 -54 51 -23 65 -25 188 -22 74 1 151 -2 173 -8 30 -8 44 -8 55 1 26
21 15 37 -34 49 -29 7 -70 28 -104 55 -47 36 -56 49 -62 85 -7 43 -45 113 -79
143 -30 26 -95 22 -158 -11z"/>
<path d="M8935 14728 c-65 -23 -117 -69 -142 -125 -21 -45 -23 -59 -14 -79 9
-21 17 -24 69 -24 32 0 81 -6 109 -13 29 -8 58 -10 66 -5 9 4 17 31 22 65 3
32 13 80 21 107 8 27 14 51 14 53 0 1 -13 9 -30 18 -33 17 -72 18 -115 3z"/>
<path d="M9416 14181 c-3 -5 -20 -49 -37 -97 -67 -192 -161 -347 -270 -448
-92 -85 -183 -139 -301 -179 -91 -31 -97 -31 -273 -31 -187 1 -213 5 -438 69
-97 27 -340 131 -543 231 -104 52 -202 94 -217 94 -111 0 -232 -157 -186 -242
17 -32 296 -153 489 -212 253 -77 553 -114 774 -96 449 37 745 239 948 645 46
90 98 230 98 259 0 17 -35 22 -44 7z"/>
<path d="M52255 17466 c-109 -35 -203 -112 -297 -243 -190 -263 -356 -674
-468 -1153 -47 -199 -107 -573 -121 -750 -23 -302 17 -670 74 -670 34 0 38 25
17 111 -70 291 -44 736 69 1179 130 511 362 1024 573 1266 71 81 122 118 153
110 83 -21 135 -280 135 -677 0 -330 -22 -480 -140 -974 -44 -181 -83 -345
-87 -364 -7 -30 -15 -36 -68 -56 -137 -51 -248 -120 -356 -222 -72 -68 -79
-80 -54 -89 9 -4 36 15 72 49 109 104 203 165 326 211 l67 26 -7 -58 c-5 -31
-8 -83 -8 -116 0 -53 3 -61 28 -80 43 -31 146 -29 206 4 68 38 80 61 86 165 8
123 9 125 55 125 70 0 264 -38 372 -74 187 -61 527 -239 514 -269 -13 -33 -88
-274 -111 -357 -27 -104 -31 -156 -12 -181 37 -48 135 -54 217 -11 68 34 89
63 94 132 5 62 46 230 56 230 12 0 214 -213 279 -295 203 -254 353 -551 419
-830 23 -97 26 -131 26 -285 0 -158 -3 -185 -27 -274 -16 -61 -42 -125 -67
-166 -78 -133 -243 -253 -459 -335 -108 -41 -287 -88 -301 -80 -6 4 -10 33
-10 65 0 64 -9 77 -40 60 -17 -9 -20 -21 -20 -79 l0 -69 -102 -13 c-163 -22
-476 -17 -623 9 -344 62 -614 171 -841 340 -112 83 -302 272 -380 377 -284
381 -434 835 -460 1397 -7 138 -9 149 -31 170 -18 17 -39 23 -86 26 -53 3 -70
0 -117 -25 -30 -16 -65 -44 -77 -62 -21 -30 -22 -41 -17 -149 21 -489 122
-880 318 -1237 160 -291 403 -553 663 -713 256 -159 504 -253 796 -304 115
-20 165 -22 397 -22 243 0 278 3 414 27 82 15 150 26 152 24 1 -1 7 -254 14
-562 10 -436 10 -626 1 -860 -6 -165 -15 -303 -20 -308 -17 -17 -273 283 -382
448 -110 167 -188 342 -229 513 -23 93 -33 106 -68 83 -41 -26 89 -389 206
-579 51 -81 214 -294 338 -440 69 -82 124 -156 124 -167 0 -22 -45 -330 -56
-383 l-7 -34 -47 74 c-25 40 -72 118 -103 174 -37 65 -66 105 -83 112 -99 46
-284 -58 -284 -159 0 -34 72 -155 235 -397 82 -123 154 -229 159 -236 13 -18
-92 -269 -170 -407 -66 -114 -181 -279 -256 -363 l-34 -39 -33 94 c-68 191
-192 420 -264 487 -23 22 -25 22 -46 5 l-22 -18 46 -59 c82 -106 173 -285 235
-464 l33 -93 -39 -40 c-62 -65 -216 -176 -317 -230 -50 -27 -95 -49 -99 -49
-5 0 -8 28 -8 63 0 86 -23 109 -115 115 -74 5 -131 -17 -181 -69 -27 -28 -29
-35 -29 -111 l0 -81 -120 6 c-280 13 -510 136 -681 364 -182 241 -274 618
-244 992 12 154 28 221 79 326 124 261 336 491 936 1014 342 299 575 534 575
581 0 28 -40 71 -84 91 -73 33 -144 19 -171 -32 -16 -30 -179 -205 -260 -279
-33 -30 -105 -96 -160 -146 -55 -50 -165 -149 -245 -219 -177 -156 -470 -449
-566 -565 -221 -267 -320 -462 -359 -704 -4 -21 -6 -127 -6 -235 0 -149 5
-224 20 -311 50 -290 167 -527 354 -715 222 -224 489 -326 814 -312 l123 5 0
-202 c0 -110 5 -338 10 -506 9 -277 12 -313 35 -398 72 -261 167 -457 272
-559 80 -77 178 -87 279 -28 56 33 102 86 168 196 157 264 229 588 229 1024 0
304 -29 529 -120 932 -4 16 12 42 67 105 158 182 307 429 385 638 16 41 32 79
36 84 4 4 27 -17 51 -49 124 -163 212 -271 306 -375 221 -242 346 -351 454
-392 122 -46 252 4 309 119 47 95 25 363 -48 583 -95 290 -261 518 -689 950
l-193 195 10 160 c14 207 16 819 6 1292 l-9 372 44 11 c288 75 571 222 722
375 142 144 210 308 231 555 22 260 -89 629 -278 930 -122 193 -312 415 -481
559 -76 66 -85 77 -79 100 29 123 307 911 393 1116 147 351 255 578 350 734
45 75 128 190 155 216 66 64 123 86 110 43 -4 -13 -24 -57 -46 -99 -89 -177
-83 -139 -84 -549 -1 -379 -8 -463 -55 -740 -47 -274 -173 -709 -314 -1084
-28 -72 -35 -101 -27 -109 24 -24 47 14 109 184 172 474 318 1038 372 1440 11
86 25 268 30 414 l10 260 35 70 c19 39 54 106 78 150 67 122 68 166 5 206 -63
39 -180 6 -291 -82 -138 -109 -327 -373 -497 -694 -29 -55 -65 -122 -80 -150
-22 -39 -164 -344 -265 -570 -49 -109 -170 -422 -211 -545 -10 -30 -19 -56
-20 -58 -1 -2 -40 19 -87 47 -251 152 -527 247 -770 267 -83 6 -87 8 -87 31 0
22 17 107 104 528 60 289 69 393 63 695 -9 416 -64 698 -163 827 -56 74 -148
106 -229 79z m1255 -7114 c0 -4 44 -57 98 -118 470 -530 626 -837 647 -1274 2
-58 1 -111 -4 -119 -7 -11 -32 9 -108 85 -163 164 -287 328 -591 784 -112 168
-123 188 -118 220 15 96 45 312 51 368 4 34 11 62 16 62 5 0 9 -4 9 -8z m-727
-1839 c50 -232 71 -526 56 -791 -19 -354 -81 -630 -194 -869 -44 -94 -140
-243 -156 -243 -15 0 -70 82 -104 155 -60 129 -137 399 -137 485 -2 187 24
1016 32 1018 82 28 295 164 401 256 41 36 77 65 80 65 3 1 13 -34 22 -76z"/>
<path d="M16928 17440 c-90 -27 -148 -125 -293 -488 -193 -487 -451 -1326
-432 -1404 16 -63 143 -81 235 -34 61 31 92 74 92 128 0 53 18 133 136 603
129 517 252 960 263 950 13 -14 117 -375 171 -600 79 -326 124 -576 145 -820
3 -38 9 -82 11 -97 5 -27 4 -28 -36 -28 -79 0 -255 -31 -345 -61 -152 -51
-259 -119 -332 -211 -40 -49 -41 -58 -8 -58 14 0 25 4 25 9 0 20 120 129 175
158 121 64 323 113 466 113 l56 0 7 -46 c3 -26 6 -97 6 -158 0 -123 6 -142 40
-131 22 7 22 8 18 174 l-3 167 65 -3 c115 -5 273 -24 370 -45 120 -25 200 -47
200 -56 -1 -4 -5 -38 -10 -77 -7 -57 -6 -74 6 -93 18 -27 71 -52 112 -52 52 0
127 29 161 62 l32 32 36 -20 c20 -10 61 -42 90 -70 50 -47 54 -54 49 -85 -15
-91 -46 -617 -46 -782 l0 -108 28 3 27 3 7 200 c7 235 28 570 38 604 5 21 9
16 28 -37 100 -274 107 -764 16 -1127 -36 -144 -62 -192 -157 -284 -128 -124
-332 -295 -442 -370 -172 -117 -355 -197 -535 -232 -93 -18 -319 -16 -405 5
-127 30 -135 34 -135 67 0 48 -24 92 -74 136 -47 42 -69 46 -81 15 -4 -10 8
-30 33 -56 43 -45 67 -84 57 -94 -3 -3 -43 12 -88 35 -327 163 -584 503 -700
923 -46 166 -60 302 -54 510 7 206 19 283 73 473 40 140 39 145 -10 181 -22
17 -43 21 -100 21 -62 0 -78 -4 -114 -28 -26 -17 -44 -37 -48 -55 -3 -15 -14
-54 -24 -87 -70 -223 -94 -386 -95 -625 0 -332 66 -600 214 -869 23 -41 40
-76 38 -77 -2 -2 -74 -8 -160 -14 -166 -10 -255 -22 -352 -46 -274 -68 -469
-218 -558 -429 -78 -186 -56 -372 63 -529 49 -65 158 -158 173 -149 6 3 7 2 4
-4 -16 -25 191 -121 345 -158 160 -39 393 -43 483 -9 15 6 17 4 9 -12 -20 -44
-5 -133 51 -283 56 -152 75 -225 75 -292 0 -44 11 -54 40 -39 17 9 20 21 20
78 0 69 16 138 83 355 21 65 40 141 43 170 5 46 3 55 -18 74 -12 12 -39 25
-58 30 l-34 9 79 50 c185 114 444 335 545 464 60 76 67 81 95 76 17 -3 77 -11
135 -16 222 -22 464 21 710 124 85 36 292 156 355 205 232 184 519 461 574
554 74 126 110 318 118 622 10 397 -50 695 -176 878 l-30 45 29 233 c42 332
77 643 90 794 15 183 28 292 51 428 19 109 27 129 98 271 95 186 97 195 69
231 -20 25 -26 27 -79 23 -95 -7 -158 -72 -195 -198 -25 -85 -57 -150 -103
-205 -39 -47 -157 -276 -242 -467 -99 -225 -200 -561 -243 -809 l-6 -36 -68
18 c-119 32 -304 60 -444 66 l-137 6 -6 51 c-72 661 -106 935 -141 1141 -34
203 -97 512 -110 536 -24 48 -86 75 -136 59z m1553 -1390 c-12 -310 -33 -693
-37 -699 -2 -2 -27 12 -56 31 -29 19 -68 43 -86 52 l-34 17 7 62 c24 233 90
532 168 767 38 115 42 122 45 85 2 -22 -1 -164 -7 -315z m-2311 -2831 c131
-120 363 -257 503 -296 31 -9 57 -19 57 -23 0 -18 -124 -162 -191 -221 -192
-171 -459 -336 -606 -374 -75 -20 -234 -19 -331 1 -243 50 -463 199 -548 371
-32 66 -38 89 -42 159 -7 138 51 284 135 337 125 79 267 100 645 95 157 -2
290 0 294 5 12 12 16 9 84 -54z"/>
<path d="M42560 16806 c-157 -44 -277 -160 -328 -316 -56 -169 -172 -883 -237
-1455 -41 -367 -56 -460 -72 -470 -238 -146 -519 -380 -498 -415 12 -20 34
-10 67 31 49 59 208 191 328 271 l105 69 5 -108 c5 -101 7 -112 43 -178 78
-146 107 -212 119 -279 13 -71 27 -88 54 -65 36 29 -5 173 -96 336 l-60 108 0
103 c0 85 3 105 18 120 26 26 260 129 392 172 123 41 290 83 297 76 3 -2 7
-50 10 -106 7 -115 16 -132 86 -151 74 -20 193 28 232 93 15 26 16 44 10 119
l-7 89 82 0 c238 0 475 -71 665 -199 49 -33 165 -154 171 -178 3 -12 -3 -50
-15 -85 -39 -119 -71 -272 -83 -400 -6 -70 -9 -131 -5 -134 3 -4 17 -4 30 0
22 5 24 12 35 138 11 120 49 322 73 386 13 33 21 23 58 -63 79 -188 100 -357
83 -694 -19 -370 -48 -525 -132 -698 -40 -81 -65 -118 -131 -187 -44 -47 -104
-102 -131 -123 l-51 -37 -37 44 c-26 31 -42 41 -54 37 -28 -11 -29 -35 -2 -70
14 -19 26 -38 26 -44 0 -25 -226 -109 -394 -146 -90 -19 -129 -22 -361 -21
-237 0 -273 2 -410 27 -198 35 -309 66 -479 133 -640 251 -1021 670 -1019
1119 0 128 18 213 69 338 34 83 35 89 20 112 -25 39 -74 59 -141 60 -79 0
-126 -28 -148 -88 -8 -23 -31 -82 -50 -132 -51 -130 -70 -230 -70 -370 -1
-127 12 -213 45 -310 189 -552 871 -981 1717 -1080 449 -53 950 34 1255 219
l48 29 19 -24 c29 -38 124 -226 158 -311 70 -178 101 -326 171 -835 52 -378
90 -583 166 -886 237 -959 276 -1317 198 -1822 -25 -160 -27 -156 -64 95 -11
74 -23 206 -27 293 -3 87 -10 160 -15 163 -4 3 -18 2 -30 -1 -21 -7 -21 -10
-15 -174 7 -185 22 -309 63 -519 l28 -142 -43 -143 c-45 -149 -153 -453 -194
-547 l-24 -54 -23 69 c-29 91 -74 176 -111 211 -36 35 -83 37 -126 6 -61 -43
-64 -102 -22 -377 10 -71 22 -183 26 -247 l6 -117 -43 -56 c-90 -117 -190
-186 -290 -200 -62 -9 -176 17 -263 59 -313 153 -665 648 -790 1112 -121 447
-188 837 -229 1339 -17 211 -17 940 0 1135 46 521 130 947 269 1360 30 91 59
173 65 183 6 12 4 26 -9 47 -39 67 -181 80 -250 23 -30 -25 -41 -50 -98 -218
-191 -573 -279 -1106 -292 -1775 -11 -539 33 -994 152 -1595 42 -212 132 -550
182 -685 142 -380 429 -777 705 -973 l57 -41 -50 -28 c-85 -49 -85 -50 -92
-356 -7 -286 -14 -394 -77 -1072 -51 -559 -59 -670 -70 -984 -15 -419 9 -814
70 -1127 27 -142 111 -453 155 -575 109 -304 257 -484 444 -538 68 -20 208
-21 280 -1 179 47 325 192 436 430 34 73 97 267 130 395 24 97 132 616 159
770 64 365 97 918 77 1310 -28 544 -100 921 -249 1305 -117 298 -154 424 -193
655 -17 103 -19 127 -8 147 12 22 15 16 46 -89 18 -62 87 -318 154 -568 66
-250 142 -531 169 -625 198 -687 362 -1073 519 -1222 45 -43 158 -104 238
-130 282 -91 500 120 562 542 39 268 9 640 -65 819 -53 126 -102 198 -381 563
-60 78 -140 197 -178 265 -53 95 -244 479 -305 613 -109 237 -206 484 -274
694 -57 177 -64 219 -46 281 53 185 83 433 84 685 0 320 -36 562 -150 1000
-212 818 -219 853 -310 1525 -58 432 -131 677 -276 922 l-46 76 77 60 c140
111 261 265 321 409 70 168 96 333 106 668 12 432 -35 658 -183 880 l-34 53
31 73 c41 97 127 260 230 434 355 601 456 813 490 1025 15 95 12 237 -5 304
-30 113 -90 166 -190 166 -108 0 -223 -64 -355 -199 -76 -77 -273 -288 -346
-371 -162 -182 -514 -681 -514 -727 0 -20 40 -63 77 -82 12 -6 49 -11 83 -11
54 0 64 3 87 28 14 15 91 131 170 257 144 228 229 344 455 626 155 194 258
303 279 294 45 -17 79 -136 79 -276 0 -210 -70 -402 -347 -949 -71 -140 -157
-318 -192 -395 -34 -77 -64 -142 -66 -143 -2 -2 -43 28 -90 67 -201 162 -453
241 -767 241 l-125 0 -7 133 c-19 367 -23 572 -19 854 8 427 -13 605 -88 760
-35 73 -109 144 -167 161 -49 15 -123 14 -182 -2z m86 -192 c93 -98 116 -380
68 -840 -23 -225 -25 -281 -22 -583 l3 -334 -125 -33 c-165 -43 -277 -83 -434
-155 -72 -32 -131 -57 -132 -56 -2 1 8 83 21 182 53 407 244 1320 341 1627 33
106 54 145 96 184 40 38 50 42 107 43 38 1 48 -4 77 -35z m1797 -8682 c62
-193 128 -358 258 -652 78 -176 343 -694 394 -770 59 -87 112 -157 230 -305
175 -218 250 -356 292 -535 26 -108 27 -130 28 -355 0 -186 -4 -260 -17 -330
-43 -226 -126 -383 -229 -435 -107 -55 -325 14 -443 140 -181 193 -378 781
-651 1945 -26 110 -65 265 -87 345 -22 79 -50 193 -63 251 l-24 107 46 104
c64 145 121 299 173 466 25 78 47 142 50 142 3 0 22 -53 43 -118z m-579 -1099
c10 -88 71 -325 115 -448 22 -60 58 -161 80 -223 184 -511 241 -1289 150
-2077 -28 -244 -52 -380 -130 -735 -122 -547 -156 -667 -243 -845 -68 -138
-111 -183 -183 -191 -139 -17 -266 87 -367 300 -55 116 -94 236 -150 461 -76
306 -100 468 -117 812 -19 355 2 765 76 1493 61 609 81 859 91 1136 l7 181 56
-14 c88 -23 249 -14 328 19 79 33 165 91 223 148 25 25 48 44 51 43 3 -1 9
-28 13 -60z"/>
<path d="M24471 16737 c-58 -29 -95 -79 -123 -163 -15 -46 -37 -88 -68 -125
-25 -30 -75 -107 -111 -170 -35 -63 -74 -132 -87 -154 -83 -145 -87 -158 -90
-322 l-4 -153 -136 0 c-316 0 -672 -61 -982 -167 l-134 -46 -40 44 c-102 115
-140 304 -138 702 1 240 0 248 -20 267 -26 24 -66 25 -115 5 -88 -37 -105 -73
-193 -399 -24 -89 -39 -214 -42 -350 l-3 -110 34 -23 c67 -45 176 -26 248 43
26 24 47 43 48 41 1 -1 21 -39 44 -83 23 -45 58 -100 78 -123 19 -23 34 -43
32 -45 -2 -2 -38 -21 -79 -41 -124 -62 -232 -139 -311 -222 -86 -91 -110 -130
-89 -143 18 -11 38 -2 46 22 10 31 132 156 203 207 36 25 110 69 165 97 l99
51 52 -23 c67 -31 144 -42 156 -23 16 26 9 36 -28 42 -21 2 -53 11 -72 19
l-35 14 90 31 c437 155 942 202 1357 127 l87 -16 0 -363 c0 -227 4 -366 10
-370 5 -3 19 -1 30 5 19 10 20 20 20 324 0 329 3 376 27 376 30 0 169 -65 237
-111 84 -57 147 -127 184 -206 25 -54 27 -67 26 -188 0 -155 -21 -279 -100
-610 -98 -409 -155 -559 -281 -750 -55 -82 -194 -234 -235 -256 -13 -7 -23 2
-49 49 -67 117 -155 186 -227 180 -30 -2 -38 -8 -40 -25 -3 -19 1 -23 23 -23
59 0 138 -72 191 -175 l29 -56 -25 -20 c-37 -29 -176 -94 -253 -118 -122 -37
-236 -54 -377 -54 -196 0 -362 28 -533 88 -74 27 -255 115 -298 146 -15 10
-30 19 -33 19 -13 0 -166 118 -245 189 -342 308 -536 729 -568 1235 -8 113 -9
120 -34 139 -74 55 -231 13 -281 -74 -29 -50 0 -365 53 -572 144 -564 556
-1029 1102 -1242 399 -156 798 -176 1161 -58 130 42 225 84 320 141 37 23 70
42 71 42 14 0 112 -361 159 -580 80 -378 143 -812 206 -1425 41 -403 96 -656
279 -1299 283 -990 316 -1361 186 -2071 -65 -350 -203 -802 -310 -1016 -161
-319 -467 -692 -687 -836 -85 -55 -135 -73 -205 -73 -141 0 -249 122 -332 375
-139 424 -212 921 -252 1700 -20 392 -3 1809 36 3045 8 256 18 659 22 895 l6
431 -32 27 c-73 61 -239 18 -287 -75 -9 -17 -13 -40 -9 -55 6 -26 -10 -1248
-21 -1544 l-6 -177 -44 -5 c-48 -5 -110 -46 -124 -81 -4 -11 -13 -50 -20 -86
-23 -126 -120 -537 -161 -680 -55 -195 -151 -474 -216 -630 -36 -85 -67 -161
-70 -167 -3 -9 5 -13 26 -13 17 0 31 4 31 10 0 33 152 355 271 575 78 143 176
328 219 411 l77 151 7 -691 c11 -1147 36 -1645 106 -2136 76 -530 210 -1013
338 -1222 19 -32 39 -55 45 -51 5 3 7 1 4 -4 -10 -15 82 -97 144 -129 65 -33
180 -43 268 -24 82 18 205 79 296 147 93 69 250 224 337 332 33 42 65 77 69
79 5 2 9 -12 9 -32 0 -119 60 -402 134 -631 61 -191 106 -345 152 -520 41
-154 46 -187 56 -355 6 -106 15 -188 21 -192 6 -4 20 -2 30 4 19 10 20 18 14
137 -9 167 -24 416 -48 751 -10 151 -24 440 -31 643 -12 364 -12 367 -35 389
-18 17 -39 23 -88 26 l-63 4 40 67 c180 293 341 796 417 1301 91 603 61 990
-123 1638 -80 278 -152 503 -160 495 -4 -4 -4 0 -1 8 3 9 1 28 -4 42 -6 15 -9
27 -8 27 2 0 32 -28 68 -62 35 -35 142 -137 237 -227 246 -233 400 -423 481
-595 30 -63 75 -209 87 -284 7 -43 22 -52 53 -33 13 8 13 19 2 78 -19 100
-135 440 -196 576 -96 213 -277 518 -409 692 -154 201 -166 214 -203 221 -46
9 -109 -10 -155 -47 -20 -16 -41 -29 -46 -29 -12 0 -96 345 -122 500 -11 69
-29 215 -41 325 -89 886 -208 1554 -349 1960 l-21 60 23 14 c49 30 236 231
290 312 142 212 207 388 284 764 116 573 127 757 54 914 -64 135 -237 260
-449 322 l-83 24 6 90 c11 162 46 444 77 621 9 55 20 75 70 140 123 160 149
235 95 280 -36 32 -105 32 -165 1z"/>
<path d="M31529 16137 c-71 -47 -86 -138 -53 -322 l16 -91 -29 -59 c-78 -156
-209 -674 -249 -989 -19 -146 -15 -164 39 -189 68 -33 165 -14 229 42 l42 38
7 124 c9 157 43 421 84 657 l6 32 35 -47 c53 -71 179 -190 270 -255 106 -76
290 -188 309 -188 8 0 19 9 25 20 9 18 5 23 -36 48 -149 87 -326 214 -399 287
-66 65 -90 98 -128 174 -29 56 -47 107 -47 127 0 19 25 111 55 204 63 194 72
272 38 336 -37 72 -145 98 -214 51z"/>
<path d="M34392 15782 c-42 -13 -87 -59 -164 -168 -119 -170 -195 -295 -274
-453 -75 -151 -112 -260 -140 -412 -9 -49 -21 -89 -25 -89 -5 0 -46 20 -92 44
-45 25 -117 58 -159 75 -270 106 -738 169 -942 126 -63 -13 -89 -14 -104 -6
-11 6 -41 11 -65 11 -43 0 -48 -3 -122 -82 -322 -342 -541 -735 -627 -1124
-30 -137 -32 -435 -4 -569 51 -244 149 -420 329 -591 293 -278 690 -448 1242
-531 154 -23 601 -23 738 -1 102 16 85 23 212 -86 161 -139 374 -373 532 -582
413 -548 633 -1078 593 -1428 -10 -85 -27 -146 -40 -146 -9 0 -302 304 -340
353 -12 15 -26 25 -31 21 -5 -3 -8 -2 -7 3 2 5 -36 53 -83 108 -177 206 -290
376 -369 554 -22 49 -40 93 -40 99 0 16 -18 24 -40 17 -25 -8 -25 -31 1 -97
109 -279 288 -515 756 -1001 141 -146 138 -131 49 -226 -87 -91 -237 -185
-458 -284 -139 -62 -197 -86 -553 -221 l-170 -65 -17 22 c-70 91 -264 476
-451 897 -194 436 -206 459 -234 477 -60 39 -190 1 -252 -74 -49 -60 -49 -87
-1 -183 23 -46 94 -194 157 -329 188 -403 358 -725 472 -892 17 -26 31 -49 31
-52 0 -3 -17 -16 -37 -28 -80 -49 -176 -133 -209 -184 -44 -69 -80 -179 -93
-283 -36 -283 114 -548 462 -820 121 -95 209 -154 546 -372 411 -265 550 -388
610 -538 27 -66 10 -162 -56 -322 -46 -109 -71 -189 -102 -325 -57 -249 -83
-359 -86 -363 -1 -1 -36 10 -76 26 -41 16 -213 75 -382 131 -249 82 -311 100
-323 90 -33 -27 -6 -41 221 -115 210 -69 534 -182 544 -190 2 -2 -6 -45 -19
-96 -80 -327 -166 -504 -281 -578 -52 -34 -144 -69 -154 -59 -2 3 -9 36 -15
74 -14 89 -38 116 -109 123 -85 8 -181 -41 -217 -110 -9 -17 -14 -47 -12 -71
l3 -42 -65 3 c-239 11 -666 70 -776 107 -252 87 -498 247 -700 457 -270 282
-378 546 -323 792 19 85 91 220 225 421 250 375 326 548 355 816 13 114 6 385
-11 484 -32 177 -94 308 -195 410 -80 80 -145 122 -230 146 -200 59 -205 62
-229 167 -69 303 -27 984 100 1637 167 859 476 1535 702 1535 84 0 146 175 85
242 -42 46 -213 -10 -354 -118 -401 -306 -727 -1247 -845 -2444 -24 -242 -25
-723 -1 -867 41 -252 90 -310 314 -369 115 -31 148 -51 228 -135 126 -133 175
-317 175 -655 0 -271 -57 -426 -283 -773 -150 -231 -228 -379 -263 -499 -24
-85 -26 -105 -22 -215 4 -100 10 -138 33 -206 33 -98 128 -261 211 -362 62
-75 222 -237 264 -266 14 -10 34 -26 45 -36 35 -33 226 -157 299 -195 159 -81
327 -141 451 -161 219 -34 811 -81 836 -66 5 4 11 0 13 -7 29 -93 111 -394
126 -463 11 -49 23 -136 27 -192 6 -96 5 -105 -20 -155 -15 -29 -65 -96 -113
-148 -258 -285 -313 -444 -219 -633 115 -230 401 -249 796 -52 96 47 313 182
384 239 11 9 49 39 85 68 166 131 376 329 362 342 -4 4 -2 6 4 4 18 -5 146
145 232 272 63 94 118 202 133 266 20 81 15 342 -8 454 -78 366 -314 636 -747
852 -67 33 -122 62 -124 63 -2 1 26 142 63 313 56 266 73 328 119 443 85 212
94 296 40 404 -55 110 -136 192 -314 321 -88 64 -139 97 -440 282 -331 204
-472 306 -614 442 -203 196 -281 353 -280 560 1 145 42 274 110 350 31 34 161
130 177 130 2 0 36 -40 75 -88 38 -48 118 -136 176 -195 217 -219 411 -332
771 -450 411 -135 683 -159 892 -78 233 91 338 294 304 589 -30 255 -127 480
-316 730 -66 88 -109 139 -277 327 -29 32 -48 56 -41 52 16 -10 51 100 64 205
56 459 -376 1277 -1002 1898 -70 69 -147 141 -172 160 -26 19 -47 38 -47 41 0
3 35 13 78 23 227 54 463 170 631 311 120 101 196 196 265 332 159 313 35 691
-383 1167 -53 60 -148 156 -211 213 l-115 105 -12 191 c-37 590 -27 881 37
1149 47 191 49 221 18 242 -24 17 -38 18 -76 8z m-112 -551 c0 -76 11 -193 40
-436 19 -162 45 -533 38 -541 -3 -2 -54 36 -114 84 -60 48 -121 96 -136 107
l-26 20 19 155 c40 333 57 408 131 602 16 43 34 78 39 78 5 0 9 -31 9 -69z
m-1195 -390 c257 -47 368 -82 554 -174 l143 -72 -6 -73 c-6 -68 -5 -75 15 -93
50 -43 110 -47 224 -14 38 11 342 -238 347 -284 2 -19 10 -27 31 -31 56 -10
317 -301 450 -502 330 -497 315 -851 -49 -1153 -168 -140 -458 -249 -740 -280
-55 -6 -66 -4 -102 19 -59 37 -159 77 -176 70 -35 -13 -16 -42 47 -72 l62 -30
-106 -1 c-257 -2 -579 54 -841 145 -131 46 -359 156 -463 224 -312 205 -467
441 -516 789 -15 104 -7 307 16 416 69 332 254 668 541 980 65 70 68 80 53
134 -7 25 40 30 221 27 123 -3 211 -10 295 -25z m2251 -5248 c262 -300 422
-600 470 -881 21 -120 15 -314 -11 -390 -26 -75 -83 -136 -151 -161 -75 -28
-229 -28 -367 -1 -201 41 -537 173 -712 280 -190 116 -406 328 -529 521 l-17
26 183 72 c629 247 846 359 1002 516 39 39 73 72 76 73 3 1 28 -24 56 -55z
m-364 -4105 c157 -80 272 -161 373 -261 141 -141 215 -265 271 -452 47 -158
45 -500 -3 -604 -81 -176 -265 -386 -533 -609 -231 -192 -493 -350 -695 -418
-100 -33 -240 -39 -292 -11 -73 39 -120 135 -110 223 6 60 48 120 193 275 129
138 182 211 215 297 19 48 22 77 22 182 0 140 -21 272 -78 483 -39 141 -41
157 -22 157 23 0 141 61 201 104 141 101 252 311 322 609 10 42 22 77 27 77 5
0 54 -23 109 -52z"/>
<path d="M32518 14193 c-122 -41 -201 -182 -136 -243 21 -19 116 -60 140 -60
43 0 209 -58 250 -86 48 -34 71 -36 83 -6 4 12 -5 26 -30 46 -38 30 -71 92
-107 201 -24 73 -73 141 -112 155 -35 12 -30 12 -88 -7z"/>
<path d="M33762 13954 c-63 -50 -94 -145 -68 -208 14 -33 19 -37 40 -32 14 3
55 25 92 48 36 23 82 44 102 47 46 8 58 45 19 55 -16 4 -30 20 -43 48 -10 24
-25 48 -34 55 -25 20 -73 15 -108 -13z"/>
<path d="M32595 13426 c-28 -13 -64 -38 -79 -57 -27 -32 -28 -37 -23 -109 7
-87 61 -263 106 -345 135 -247 300 -396 521 -473 254 -89 438 -61 703 106 296
186 487 384 487 507 0 104 -114 177 -375 238 -248 59 -756 117 -1023 117 -89
0 -108 3 -129 20 -37 29 -123 27 -188 -4z m605 -81 c190 -18 249 -26 403 -60
236 -51 425 -119 510 -183 79 -60 77 -99 -11 -189 -70 -71 -225 -177 -372
-253 l-105 -55 -105 0 c-129 0 -196 20 -295 87 -186 126 -331 339 -387 568
-10 41 -18 81 -18 88 0 17 172 16 380 -3z"/>
<path d="M23965 14936 c-55 -25 -78 -47 -93 -87 -13 -34 -5 -45 47 -63 23 -9
55 -25 71 -36 24 -17 34 -19 50 -10 11 6 20 16 20 21 0 6 30 39 66 74 74 71
77 85 18 110 -53 22 -121 19 -179 -9z"/>
<path d="M17772 14882 c-60 -22 -108 -62 -128 -109 -18 -41 -9 -63 25 -63 14
-1 51 -9 81 -20 71 -25 79 -25 89 3 5 12 34 50 65 84 31 34 54 67 51 75 -16
42 -106 57 -183 30z"/>
<path d="M22775 14821 c-48 -22 -95 -74 -95 -105 0 -20 9 -26 65 -41 36 -9 68
-21 71 -26 9 -15 18 -11 57 25 21 19 60 49 87 66 55 35 56 49 5 80 -42 26
-134 27 -190 1z"/>
<path d="M16639 14714 c-64 -19 -109 -67 -109 -115 0 -21 4 -39 8 -41 4 -1 20
-20 36 -40 15 -20 43 -42 61 -48 19 -6 37 -20 40 -31 7 -21 35 -25 52 -8 6 6
8 30 5 54 -5 46 7 63 72 108 15 11 32 30 38 43 10 20 8 28 -12 49 -41 44 -110
54 -191 29z"/>
<path d="M52013 14454 c-23 -9 -56 -32 -74 -51 -27 -32 -31 -41 -26 -78 4 -23
22 -71 42 -107 24 -45 35 -79 35 -107 0 -33 3 -41 19 -41 24 0 36 16 49 62 5
20 36 69 68 108 117 142 125 177 51 211 -50 22 -106 23 -164 3z"/>
<path d="M24165 14168 c-3 -7 -12 -46 -20 -86 -38 -183 -118 -293 -261 -359
-77 -35 -186 -43 -269 -18 -141 41 -300 151 -413 289 -46 54 -69 75 -93 80
-107 21 -261 -105 -246 -202 5 -29 20 -50 69 -97 105 -101 190 -151 338 -201
80 -27 95 -29 245 -29 173 0 230 12 349 72 179 91 312 289 351 526 6 35 4 37
-20 37 -14 0 -28 -6 -30 -12z"/>
<path d="M17775 14124 c-58 -21 -117 -84 -166 -180 -24 -46 -50 -84 -58 -84
-8 0 -11 3 -7 7 9 10 -203 76 -241 75 -69 -1 -152 -89 -169 -176 -7 -42 17
-94 49 -101 12 -3 60 -14 107 -25 47 -11 109 -20 138 -20 28 0 52 -1 52 -3 0
-1 -13 -36 -29 -77 -36 -95 -88 -184 -152 -260 -48 -57 -54 -80 -24 -80 33 0
151 168 245 349 30 57 53 89 73 100 114 62 156 107 263 275 65 103 77 149 44
184 -11 12 -26 22 -33 23 -7 0 -21 2 -32 4 -11 2 -38 -3 -60 -11z"/>
<path d="M42910 14099 c-106 -48 -170 -162 -125 -226 18 -26 146 -88 296 -143
74 -26 136 -57 169 -82 54 -41 76 -45 94 -16 9 14 6 21 -12 34 -53 37 -88 88
-158 230 -106 219 -152 254 -264 203z"/>
<path d="M53040 14039 c-58 -26 -97 -63 -111 -106 -10 -30 -8 -37 15 -67 13
-18 47 -47 74 -65 36 -23 51 -40 56 -62 12 -59 66 -45 66 18 0 25 15 60 51
119 65 105 69 142 19 166 -46 24 -114 22 -170 -3z"/>
<path d="M51905 13862 c-22 -11 -49 -29 -59 -41 -46 -52 -73 -391 -41 -515 53
-201 171 -331 360 -393 68 -22 98 -26 205 -27 178 -1 310 33 505 131 165 83
360 216 360 247 0 25 -35 14 -86 -27 -130 -105 -251 -173 -371 -208 -105 -30
-303 -38 -384 -14 -134 38 -204 98 -262 223 -30 66 -35 89 -39 176 -6 106 7
233 32 331 9 32 13 65 10 74 -19 55 -152 80 -230 43z"/>
<path d="M42299 13806 c-52 -18 -106 -63 -118 -97 -16 -45 1 -75 58 -104 31
-15 57 -37 66 -55 24 -47 55 -37 69 24 4 16 28 52 52 80 63 69 78 100 62 126
-25 39 -117 52 -189 26z"/>
<path d="M42400 13034 c-45 -39 -70 -94 -70 -157 0 -91 1 -91 253 -84 326 10
686 45 1075 103 302 46 326 52 330 83 3 21 1 23 -25 16 -243 -63 -469 -60
-948 10 -192 28 -464 55 -560 55 -13 0 -38 -12 -55 -26z"/>
<path d="M17431 12479 c-94 -29 -155 -96 -148 -164 11 -97 124 -275 234 -370
39 -33 85 -83 102 -112 39 -65 43 -67 72 -45 l22 19 -37 60 c-21 35 -46 95
-58 139 -18 72 -19 90 -9 204 19 217 1 270 -96 276 -26 2 -63 -1 -82 -7z"/>
<path d="M16836 12291 c-54 -22 -91 -53 -112 -93 -12 -23 -12 -38 0 -105 21
-118 76 -239 137 -299 28 -27 64 -75 80 -106 16 -32 33 -58 37 -58 5 0 17 6
27 14 19 14 19 15 -8 73 -16 33 -31 88 -36 128 -8 62 -6 78 16 140 41 115 64
208 61 244 -6 70 -106 100 -202 62z"/>
<path d="M15232 12087 c-18 -5 -52 -27 -75 -47 l-42 -38 3 -74 c3 -81 27 -187
91 -403 25 -83 44 -172 48 -218 6 -79 18 -102 47 -91 13 5 16 23 15 113 0 122
11 185 85 476 14 55 28 132 32 171 6 70 6 70 -26 97 -27 23 -40 27 -88 26 -31
-1 -72 -6 -90 -12z"/>
<path d="M43663 11404 c-17 -45 56 -299 162 -565 46 -113 92 -244 104 -290 24
-94 28 -244 10 -362 -46 -305 -253 -874 -407 -1118 -50 -79 -136 -163 -158
-155 -9 3 -20 6 -25 6 -19 0 -90 74 -119 124 -52 91 -64 161 -63 346 1 230 13
305 148 935 65 304 98 491 110 622 6 69 5 72 -22 97 -65 60 -208 37 -277 -44
-23 -27 -26 -41 -26 -100 0 -93 -22 -260 -70 -525 -78 -434 -100 -604 -116
-890 -18 -327 69 -569 246 -684 51 -34 60 -36 135 -36 95 0 146 21 225 92 146
131 248 350 388 828 89 303 127 586 103 766 -17 127 -32 178 -126 412 -80 200
-145 408 -160 511 -6 40 -10 46 -31 46 -14 0 -27 -7 -31 -16z"/>
<path d="M36193 8364 c-7 -3 -13 -14 -13 -23 0 -17 17 -19 183 -25 507 -20
891 -96 1182 -236 238 -115 426 -263 465 -368 31 -81 24 -241 -15 -362 -96
-298 -366 -660 -576 -775 -90 -49 -210 -31 -283 42 -50 50 -118 164 -188 315
-86 185 -117 242 -181 336 -97 142 -225 234 -362 262 -97 20 -236 14 -346 -14
-203 -53 -362 -133 -689 -348 -102 -66 -210 -135 -240 -152 -70 -40 -87 -72
-70 -129 14 -49 69 -107 101 -107 30 0 72 26 354 215 362 243 521 313 692 303
132 -8 242 -72 328 -193 24 -34 87 -137 140 -231 173 -304 247 -394 367 -453
300 -146 695 132 970 684 87 173 128 324 128 471 0 158 -42 245 -158 331 -334
248 -773 394 -1332 442 -146 13 -441 22 -457 15z"/>
<path d="M23816 5420 c-26 -8 -106 -58 -106 -67 0 -2 -11 -61 -25 -131 -29
-141 -38 -202 -60 -377 -30 -232 -76 -471 -117 -603 -41 -133 -42 -160 -5
-146 11 4 30 47 54 123 35 113 132 341 248 586 82 173 142 315 182 434 41 122
37 141 -30 171 -44 21 -93 24 -141 10z"/>
</g>
</svg>
