<?xml version="1.0" standalone="no"?>
<!DOCTYPE svg PUBLIC "-//W3C//DTD SVG 20010904//EN"
 "http://www.w3.org/TR/2001/REC-SVG-20010904/DTD/svg10.dtd">
<svg version="1.0" xmlns="http://www.w3.org/2000/svg"
 width="8020.000000pt" height="484.000000pt" viewBox="0 0 8020.000000 484.000000"
 preserveAspectRatio="xMidYMid meet">
<metadata>
Created by potrace 1.16, written by Peter Selinger 2001-2019
</metadata>
<g transform="translate(0.000000,484.000000) scale(0.100000,-0.100000)"
fill="#000000" stroke="none">
<path d="M36472 4137 c-6 -6 -13 -26 -17 -42 -3 -17 -15 -64 -25 -105 -10 -41
-21 -93 -25 -115 l-6 -40 -61 3 c-34 2 -88 -1 -120 -8 l-59 -11 -108 80 c-125
93 -205 135 -233 120 -33 -18 -18 -166 32 -304 21 -60 29 -103 32 -174 l4 -94
-85 6 c-49 3 -112 14 -146 27 -96 34 -427 107 -590 131 -115 16 -182 20 -285
16 -135 -4 -176 -13 -308 -68 -29 -12 -36 -11 -69 6 -76 40 -215 203 -271 315
-69 140 -110 169 -281 194 -139 21 -229 20 -329 -4 -111 -27 -138 -26 -158 5
-19 30 -50 41 -69 25 -27 -23 -13 -110 18 -110 7 0 12 -15 13 -35 1 -78 58
-97 190 -65 124 30 218 29 391 -6 16 -3 35 -29 67 -92 57 -109 208 -298 278
-348 l53 -38 0 -110 c0 -131 23 -219 80 -305 69 -104 73 -124 49 -249 -9 -48
-20 -118 -24 -155 -11 -86 -15 -99 -53 -174 l-31 -63 19 -52 c10 -29 40 -97
66 -150 53 -106 91 -142 191 -180 69 -26 106 -24 118 6 15 40 -6 89 -69 160
-61 69 -91 132 -91 191 0 26 19 50 118 153 l117 122 43 -11 c47 -13 93 -61
129 -134 32 -64 55 -205 51 -312 l-3 -95 45 -39 c71 -61 104 -73 208 -77 86
-4 95 -2 118 19 50 47 17 96 -82 120 -27 7 -60 19 -73 28 -59 38 -68 161 -21
281 17 41 35 102 41 135 l12 60 101 22 c61 14 127 36 168 58 37 19 70 35 73
35 2 0 2 -26 -1 -58 -7 -67 7 -104 56 -145 l30 -26 -10 -93 c-5 -51 -14 -129
-21 -173 -6 -44 -11 -116 -12 -160 -3 -133 34 -164 203 -172 114 -5 143 6 148
55 4 39 -23 67 -88 91 -34 12 -45 23 -52 46 -9 32 -4 116 13 228 l11 68 36 -7
c50 -9 246 -70 296 -93 49 -21 83 -59 132 -147 55 -98 100 -119 151 -68 23 23
25 31 21 85 -4 52 -11 68 -64 146 -63 91 -89 113 -169 139 -78 26 -162 71
-264 141 -87 62 -93 67 -87 94 3 16 9 65 12 110 l7 80 56 29 c31 16 74 40 96
54 l39 24 46 -23 c79 -40 150 -55 261 -56 166 -2 259 31 360 128 50 47 97 121
113 175 4 12 22 18 73 23 123 12 148 19 148 40 0 19 -6 20 -107 17 l-108 -2 0
30 c0 16 5 30 11 30 6 0 58 23 115 50 81 39 104 55 104 70 0 12 -6 23 -13 26
-7 2 -60 -18 -118 -45 l-104 -50 -11 33 c-19 53 -44 98 -81 144 -23 27 -48 81
-73 155 -71 208 -136 347 -174 372 -13 9 -36 34 -51 55 -29 42 -45 49 -63 27z"/>
<path d="M47258 4118 c-16 -13 -78 -243 -78 -290 0 -22 -3 -23 -87 -23 -49 0
-104 -4 -123 -8 -31 -7 -40 -4 -80 26 -129 97 -180 132 -227 155 -43 21 -54
23 -67 13 -32 -27 -15 -187 34 -314 25 -66 30 -92 30 -169 l0 -91 -82 6 c-46
3 -110 15 -143 27 -82 29 -422 107 -558 128 -75 11 -170 17 -287 17 -185 -1
-188 -1 -346 -66 -29 -11 -35 -10 -80 17 -65 40 -205 208 -255 306 -72 142
-108 167 -279 193 -135 20 -239 19 -338 -5 -46 -11 -95 -20 -108 -20 -37 0
-84 -51 -84 -90 0 -37 47 -90 79 -90 12 0 75 12 142 26 l121 26 121 -17 c67
-10 127 -19 134 -22 7 -3 30 -42 52 -86 61 -124 214 -311 296 -364 l40 -25 0
-116 c0 -148 14 -193 104 -343 l70 -116 -19 -50 c-10 -27 -28 -65 -39 -84 -11
-19 -36 -74 -56 -124 -32 -79 -36 -98 -32 -155 5 -80 40 -253 61 -305 9 -20
16 -52 16 -69 0 -47 20 -77 70 -103 34 -18 57 -23 99 -21 51 3 57 6 75 37 34
58 26 107 -37 234 -30 63 -58 124 -62 138 -10 42 17 84 119 180 l99 94 -6 -67
c-3 -36 -14 -95 -23 -131 l-17 -64 24 -39 c13 -21 44 -66 69 -99 48 -64 73
-114 90 -182 14 -55 54 -87 139 -113 85 -25 237 -28 281 -5 50 26 66 88 35
133 -25 35 -98 72 -156 79 -30 3 -61 10 -70 14 -19 10 -99 163 -99 189 0 17
64 144 106 211 20 32 29 37 76 43 135 17 217 39 318 88 99 48 173 78 190 78 4
0 11 -64 15 -142 6 -132 5 -151 -19 -248 -13 -58 -32 -125 -41 -149 -8 -25
-20 -89 -26 -143 -12 -112 -5 -134 54 -165 70 -37 304 -13 360 36 25 23 28 32
22 59 -3 18 -16 37 -26 43 -39 21 -115 39 -163 39 l-49 0 5 113 c5 108 7 117
58 242 29 72 57 134 61 139 14 16 202 -230 257 -336 29 -56 69 -122 89 -146
53 -64 87 -76 208 -69 140 8 205 40 205 103 0 60 -73 113 -138 101 -15 -2 -47
0 -71 7 -42 10 -48 17 -92 91 -27 44 -66 116 -88 160 -22 44 -66 114 -97 155
-31 41 -81 113 -110 159 -51 80 -53 85 -39 112 22 41 29 42 83 15 93 -47 153
-58 290 -54 118 3 132 5 194 35 38 18 84 45 105 60 52 40 110 117 130 173 19
55 10 51 166 66 48 4 70 10 74 21 7 19 -24 45 -46 39 -9 -3 -51 -8 -93 -12
l-78 -6 0 29 c0 28 6 33 78 64 99 43 152 75 152 94 0 31 -31 26 -122 -18 -51
-25 -99 -47 -107 -49 -8 -2 -18 14 -27 44 -8 26 -36 76 -63 112 -33 44 -57 91
-76 148 -70 211 -156 391 -221 462 -36 40 -43 42 -66 24z"/>
<path d="M25688 4063 c-12 -14 -53 -173 -73 -288 -4 -18 -11 -20 -66 -17 -34
2 -88 -1 -120 -7 l-58 -12 -108 80 c-118 88 -203 134 -227 125 -9 -3 -19 -17
-22 -30 -10 -38 16 -190 46 -273 19 -54 29 -104 33 -173 l6 -98 -63 0 c-39 0
-98 10 -152 26 -437 129 -834 182 -1037 139 -37 -8 -95 -26 -128 -41 l-61 -28
-55 29 c-52 27 -83 59 -196 204 -16 20 -44 67 -63 104 -42 82 -104 152 -147
166 -53 17 -232 41 -308 41 -63 0 -175 -20 -290 -50 -75 -20 -85 -121 -17
-156 34 -18 83 -14 178 13 30 9 84 16 120 16 72 1 225 -21 252 -35 10 -5 35
-44 57 -88 49 -100 195 -285 269 -340 l57 -42 1 -86 c1 -48 6 -163 11 -257 11
-179 11 -178 104 -457 16 -48 29 -95 29 -104 0 -21 -54 -120 -83 -151 -29 -32
-19 -73 53 -219 65 -133 72 -140 169 -170 25 -8 78 -17 116 -20 59 -5 75 -2
102 15 34 21 51 70 38 111 -10 33 -63 60 -120 61 -83 2 -95 9 -132 78 -18 34
-33 71 -33 81 0 36 82 158 159 234 l78 78 44 -13 c110 -31 178 -198 179 -434
l0 -111 43 -35 c73 -61 103 -72 207 -77 87 -3 97 -2 118 18 48 46 3 109 -88
124 -121 19 -151 129 -85 311 19 53 37 117 41 143 l6 47 101 22 c62 14 129 36
170 58 37 19 70 35 73 35 3 0 2 -27 -2 -59 -5 -51 -3 -65 15 -95 12 -19 34
-44 48 -54 l26 -19 -18 -144 c-25 -212 -30 -342 -15 -379 22 -54 77 -74 203
-74 103 -1 110 0 128 23 35 43 5 90 -77 119 l-49 18 -3 79 c-2 44 2 117 8 163
l12 83 37 -7 c49 -8 226 -61 281 -85 l45 -19 -3 -84 -4 -83 29 -12 c58 -24 91
5 131 114 43 115 28 169 -56 207 -245 110 -419 215 -408 245 3 7 9 56 12 108
l7 94 61 32 c34 18 76 42 94 54 l33 23 82 -37 82 -36 155 0 155 0 76 37 c100
49 177 125 215 213 l28 64 56 6 c136 14 155 19 158 42 4 28 -12 30 -116 19
-45 -5 -84 -7 -86 -5 -2 2 -7 14 -10 26 -7 21 3 27 107 76 63 30 117 59 121
65 9 14 -4 42 -19 42 -7 0 -59 -22 -116 -50 l-104 -49 -17 50 c-17 50 -43 93
-83 139 -12 14 -37 68 -55 120 -85 248 -153 391 -220 461 -41 44 -50 46 -72
22z"/>
<path d="M56017 4053 c-9 -15 -67 -262 -67 -285 0 -23 -3 -23 -92 -24 -51 -1
-105 -6 -120 -12 -26 -11 -35 -6 -134 69 -120 90 -195 132 -227 127 -21 -3
-22 -7 -20 -103 1 -87 6 -112 37 -199 31 -85 36 -110 36 -187 l0 -88 -72 6
c-40 3 -107 16 -148 29 -134 41 -431 108 -545 124 -333 44 -467 36 -624 -36
l-54 -24 -55 32 c-49 30 -92 75 -195 207 -16 20 -46 70 -67 111 -42 83 -87
131 -140 153 -52 22 -284 51 -349 43 -114 -12 -275 -54 -293 -77 -26 -31 -23
-85 7 -114 30 -31 80 -32 185 -5 41 11 104 20 140 20 64 0 231 -24 250 -35 5
-3 30 -45 55 -93 57 -110 205 -295 275 -344 l53 -37 -2 -99 c-2 -115 16 -200
58 -277 70 -126 130 -214 188 -276 38 -40 69 -84 78 -110 33 -93 41 -291 19
-469 -5 -44 -3 -47 63 -128 37 -46 78 -98 90 -115 64 -93 89 -107 189 -107 68
0 181 35 188 58 16 60 17 115 1 139 -17 25 -19 26 -105 19 -98 -7 -100 -6
-125 65 -9 24 -27 61 -40 81 -14 21 -25 46 -25 55 0 30 63 165 114 245 l48 75
96 6 c161 9 293 40 407 97 80 40 176 80 190 80 1 0 5 -63 9 -141 8 -154 0
-211 -54 -384 -16 -53 -30 -128 -34 -181 -7 -88 -7 -91 19 -117 40 -40 86 -50
189 -44 116 7 176 22 210 54 22 20 26 31 21 52 -4 14 -11 32 -17 38 -14 17
-137 53 -182 53 l-36 0 0 93 c0 75 6 106 29 172 26 75 81 215 88 224 14 19
210 -237 263 -343 29 -57 65 -111 100 -148 l56 -58 110 0 c122 0 165 10 207
48 40 38 37 81 -8 121 -30 26 -44 31 -86 31 -28 0 -70 5 -93 11 -38 9 -47 17
-72 62 -15 29 -39 70 -54 92 -15 22 -41 69 -57 105 -17 36 -52 94 -79 130 -27
36 -76 107 -110 159 -60 90 -62 94 -49 125 7 17 19 32 27 34 8 1 45 -12 83
-29 140 -63 335 -63 472 0 102 48 197 149 223 238 l13 41 103 7 c106 7 130 17
118 49 -6 15 -18 16 -110 10 l-104 -7 0 26 c0 24 12 32 115 81 89 42 115 59
115 74 0 36 -30 32 -130 -18 -55 -28 -104 -50 -110 -50 -5 0 -10 8 -10 18 0
28 -45 114 -83 159 -24 29 -46 74 -67 140 -89 271 -205 483 -265 483 -13 0
-26 -3 -28 -7z"/>
<path d="M68196 4017 c-18 -13 -75 -224 -76 -279 l0 -27 -87 0 c-49 0 -103 -5
-122 -10 -39 -12 -29 -17 -151 75 -94 71 -186 124 -214 124 -23 0 -30 -19 -28
-78 2 -81 19 -159 52 -246 25 -65 30 -91 30 -167 l0 -90 -77 7 c-43 4 -112 17
-153 30 -132 40 -429 108 -545 124 -290 39 -440 33 -584 -25 -93 -37 -98 -36
-174 18 -48 33 -185 207 -227 289 -72 138 -101 159 -253 185 -136 23 -274 21
-374 -5 -45 -12 -91 -22 -103 -22 -11 0 -32 -11 -45 -25 -35 -34 -34 -88 1
-120 33 -31 62 -31 172 -5 46 11 116 20 155 20 74 0 224 -21 245 -34 6 -4 32
-46 57 -94 59 -115 205 -296 278 -346 31 -21 54 -43 51 -48 -7 -11 -6 -101 5
-308 8 -164 12 -184 51 -310 22 -74 50 -159 61 -188 10 -30 19 -66 19 -80 0
-26 -55 -129 -86 -160 -24 -23 -11 -71 57 -209 52 -107 64 -125 97 -142 59
-30 175 -54 233 -49 60 6 87 29 96 81 5 31 1 40 -25 67 -24 24 -39 30 -72 30
-23 0 -61 5 -85 11 -42 11 -45 15 -79 86 l-36 74 50 82 c63 104 185 229 217
221 19 -5 22 -15 28 -102 4 -54 11 -111 16 -127 12 -40 212 -208 289 -244 33
-15 79 -27 116 -29 73 -5 94 10 94 68 0 34 -7 44 -64 98 -35 33 -91 76 -124
96 l-59 37 23 65 c36 105 40 108 135 123 129 19 195 39 289 86 48 24 90 41 94
38 3 -4 6 -59 6 -124 l0 -118 -57 -43 c-82 -62 -125 -150 -95 -194 11 -16 48
-34 72 -34 38 0 161 96 190 148 15 26 39 65 54 87 15 22 30 53 33 69 5 24 7
26 16 11 19 -35 36 -120 43 -214 5 -81 12 -110 46 -189 22 -51 45 -95 50 -98
23 -15 156 -44 199 -44 45 0 132 24 157 43 7 6 12 22 10 36 -3 22 -18 33 -95
71 -51 25 -100 52 -108 61 -28 28 -42 164 -61 602 -5 110 -4 131 10 146 16 18
20 17 97 -16 147 -64 334 -65 467 -3 113 52 195 137 228 233 l15 45 72 6 c137
13 148 16 145 40 -3 23 -18 25 -148 15 l-65 -4 0 29 c0 27 6 32 80 66 123 55
145 69 145 90 0 10 -4 21 -9 25 -6 3 -55 -17 -110 -45 -55 -27 -103 -50 -108
-50 -5 0 -16 22 -26 49 -9 27 -38 77 -63 112 -31 42 -57 94 -79 158 -76 224
-151 379 -213 444 -41 42 -41 42 -66 24z"/>
<path d="M14136 3917 c-15 -11 -70 -209 -78 -282 l-3 -30 -61 3 c-33 2 -88 -2
-122 -8 -60 -12 -61 -12 -99 17 -103 80 -173 128 -225 154 l-58 29 -21 -21
c-16 -16 -19 -29 -15 -57 3 -20 8 -62 12 -92 3 -30 22 -97 40 -149 28 -78 34
-107 34 -177 l0 -84 -64 0 c-39 0 -97 10 -152 26 -199 59 -424 108 -609 135
-245 34 -423 21 -564 -43 -50 -23 -71 -19 -129 20 -59 39 -196 211 -242 302
-66 131 -100 155 -257 181 -141 23 -248 24 -323 4 -30 -8 -82 -19 -114 -25
-74 -12 -106 -39 -106 -90 0 -42 27 -76 67 -86 16 -4 67 2 123 14 56 13 128
22 175 21 79 0 210 -19 233 -33 6 -4 32 -46 57 -95 25 -48 64 -110 88 -137 23
-28 61 -75 85 -105 24 -30 68 -73 98 -94 54 -39 55 -41 51 -80 -2 -22 0 -83 5
-135 4 -52 10 -147 12 -210 3 -105 7 -128 54 -275 28 -88 55 -173 61 -188 6
-16 11 -40 11 -54 0 -30 -40 -105 -78 -146 -24 -26 -25 -30 -15 -70 7 -24 37
-95 68 -158 63 -132 78 -144 202 -174 136 -33 223 -3 223 76 0 64 -45 99 -127
99 -81 0 -91 7 -129 81 -18 38 -34 74 -34 81 0 31 105 180 171 242 l70 66 45
-12 c47 -13 88 -56 127 -133 26 -53 47 -183 47 -297 l0 -109 38 -35 c62 -58
107 -77 199 -82 100 -5 128 1 149 33 15 23 15 27 0 50 -19 29 -57 50 -110 59
-110 20 -144 128 -90 279 26 71 48 146 58 198 5 24 13 27 93 43 53 10 121 33
172 56 l83 40 -6 -54 c-8 -63 7 -102 57 -149 l31 -28 -18 -157 c-28 -241 -31
-333 -13 -369 25 -47 77 -66 192 -71 91 -4 102 -2 128 18 15 12 27 30 27 39 0
32 -39 69 -89 86 -27 9 -52 23 -55 31 -9 24 -7 135 4 221 15 110 13 107 57 84
21 -10 57 -24 81 -31 23 -7 42 -16 42 -20 0 -4 -7 -24 -16 -45 -8 -20 -14 -51
-12 -69 3 -28 7 -31 39 -34 31 -3 41 2 69 34 41 47 60 92 60 143 0 44 3 40
-137 162 -113 97 -123 112 -112 174 4 28 8 78 8 112 1 51 4 63 20 68 10 3 56
28 101 55 l81 49 32 -19 c112 -65 320 -84 452 -42 129 42 244 145 282 252 11
30 24 50 33 50 55 0 195 23 201 32 4 6 5 18 2 26 -5 12 -23 13 -110 8 l-103
-7 0 29 c0 27 6 32 76 61 96 40 154 77 154 96 0 31 -30 25 -134 -24 -58 -28
-108 -51 -111 -51 -3 0 -5 8 -5 18 0 28 -45 114 -83 159 -24 30 -47 78 -75
160 -71 208 -139 352 -198 423 -36 42 -57 52 -78 37z"/>
<path d="M3565 3900 c-9 -14 -63 -237 -67 -275 l-3 -30 -75 0 c-41 -1 -97 -4
-125 -9 l-50 -7 -95 71 c-165 124 -228 152 -249 111 -18 -32 5 -176 45 -293
28 -81 34 -113 34 -183 l0 -84 -72 5 c-40 3 -116 18 -168 34 -141 42 -429 106
-565 126 -72 11 -178 18 -265 18 -155 0 -219 -11 -321 -59 l-53 -24 -49 27
c-27 14 -67 47 -88 72 -21 25 -61 71 -88 103 -28 33 -70 98 -95 147 -50 96
-95 143 -153 159 -81 23 -269 43 -338 37 -97 -9 -262 -50 -286 -72 -26 -23
-26 -87 1 -114 31 -31 64 -34 163 -12 51 12 107 24 126 27 38 8 269 -23 289
-38 7 -5 33 -49 57 -96 55 -105 202 -288 270 -337 l50 -35 1 -72 c1 -40 6
-153 12 -252 9 -168 13 -189 52 -315 22 -74 50 -159 61 -188 10 -30 19 -65 19
-80 0 -29 -40 -104 -78 -144 -20 -21 -24 -34 -19 -61 7 -46 112 -262 139 -287
50 -46 239 -82 300 -57 39 17 64 62 54 102 -11 44 -41 62 -115 69 -101 9 -107
13 -146 95 l-35 73 45 77 c27 45 78 109 124 155 l78 77 46 -13 c48 -14 91 -57
127 -128 29 -58 50 -184 50 -304 l0 -112 43 -35 c72 -61 103 -72 207 -77 91
-4 96 -3 119 21 46 50 -3 105 -110 122 -21 3 -47 17 -64 35 -25 26 -29 39 -33
107 -4 70 -1 87 27 158 17 44 36 107 42 140 l12 60 99 22 c59 13 127 36 168
57 38 20 72 36 76 36 3 0 3 -24 0 -53 -8 -65 2 -94 50 -142 l37 -38 -18 -156
c-38 -339 -34 -379 43 -413 57 -25 215 -35 252 -16 53 28 38 90 -28 120 -26
11 -53 24 -61 28 -8 3 -19 19 -24 34 -11 33 2 46 48 46 64 0 204 127 220 199
11 49 -26 115 -116 206 l-80 83 13 122 12 122 41 20 c22 11 65 35 95 54 l56
33 61 -29 c85 -41 131 -49 255 -50 117 0 193 18 271 63 63 38 150 136 177 201
22 52 25 56 64 60 174 21 171 20 171 41 0 19 -6 20 -107 17 l-108 -4 0 26 c0
23 12 32 115 81 88 42 115 60 115 75 0 10 -4 22 -10 25 -5 3 -56 -17 -112 -45
-57 -27 -106 -50 -109 -50 -4 0 -16 26 -27 58 -12 31 -40 81 -63 111 -27 36
-53 88 -74 150 -97 284 -204 481 -261 481 -13 0 -26 -5 -29 -10z"/>
<path d="M78711 3828 c-13 -32 -61 -244 -61 -268 0 -18 -7 -20 -82 -20 -46 0
-100 -5 -121 -11 -37 -10 -39 -9 -142 68 -127 94 -206 137 -237 128 -20 -7
-21 -11 -15 -104 5 -76 14 -118 41 -195 31 -85 36 -110 36 -189 l0 -90 -79 7
c-43 3 -105 15 -137 26 -105 36 -438 112 -569 130 -302 41 -462 29 -616 -45
-36 -17 -37 -17 -89 11 -29 16 -69 48 -89 72 -20 24 -57 68 -83 98 -25 31 -65
91 -88 135 -75 145 -107 168 -265 194 -140 23 -262 22 -362 -4 -45 -11 -91
-21 -103 -21 -12 0 -35 -13 -51 -29 -47 -47 -36 -111 24 -136 34 -14 57 -12
208 21 82 17 91 17 209 1 68 -10 127 -20 132 -23 5 -3 28 -45 52 -92 67 -133
228 -325 309 -369 16 -8 19 -27 22 -139 12 -389 8 -355 63 -531 28 -89 58
-178 66 -197 21 -51 -6 -126 -72 -198 -20 -21 -23 -32 -17 -60 11 -53 124
-276 148 -293 41 -29 146 -55 224 -55 65 0 77 3 98 25 14 13 26 32 26 42 5 76
-32 113 -113 113 -83 0 -110 16 -146 89 -18 36 -32 70 -32 75 0 28 101 172
164 235 l74 74 58 -15 c68 -16 71 -22 73 -142 1 -94 28 -191 71 -259 24 -38
43 -54 91 -77 74 -35 146 -46 193 -30 77 25 115 121 62 156 -14 8 -51 22 -83
31 -77 20 -123 48 -123 77 0 28 35 114 74 181 l28 50 108 22 c84 16 134 34
223 78 63 31 128 57 143 58 27 2 29 0 38 -58 5 -33 10 -97 10 -141 1 -95 0
-98 -110 -179 -78 -58 -114 -106 -114 -153 0 -34 22 -52 63 -52 36 0 208 68
236 93 12 12 44 58 69 102 l47 80 12 -85 c40 -279 52 -324 95 -352 36 -24 130
-41 193 -36 51 4 62 9 92 41 41 45 43 83 7 127 -27 31 -111 80 -138 80 -9 0
-18 10 -21 23 -33 151 -35 201 -20 525 9 191 4 183 75 147 83 -42 309 -46 410
-6 119 46 213 134 256 240 l23 56 98 8 c106 8 138 22 113 52 -11 13 -25 15
-62 11 -26 -3 -70 -9 -98 -12 -50 -6 -50 -6 -50 23 0 27 7 32 110 80 111 52
132 71 110 98 -10 12 -24 8 -98 -29 -116 -58 -131 -62 -138 -39 -17 49 -57
123 -87 158 -23 27 -45 73 -67 140 -59 181 -144 363 -203 438 -36 45 -82 52
-96 15z"/>
</g>
</svg>
