<?xml version="1.0" standalone="no"?>
<!DOCTYPE svg PUBLIC "-//W3C//DTD SVG 20010904//EN"
 "http://www.w3.org/TR/2001/REC-SVG-20010904/DTD/svg10.dtd">
<svg version="1.0" xmlns="http://www.w3.org/2000/svg"
 width="300.000000pt" height="100.000000pt" viewBox="0 0 300.000000 100.000000"
 preserveAspectRatio="xMidYMid meet">
<metadata>
Created by potrace 1.10, written by Peter Selinger 2001-2011
</metadata>
<g transform="translate(0.000000,100.000000) scale(0.100000,-0.100000)"
fill="#000000" stroke="none">
<path d="M462 860 c-25 -33 -29 -48 -8 -31 11 9 15 6 18 -14 3 -14 4 -25 3
-25 -1 0 -19 7 -40 16 -21 8 -52 14 -71 12 -19 -1 -40 4 -51 13 -41 35 -47 35
-40 -6 3 -20 14 -49 24 -64 9 -14 16 -36 14 -49 -1 -13 5 -35 14 -49 17 -26
17 -26 -6 -18 -13 4 -67 9 -119 10 -85 3 -95 5 -104 25 -8 17 -3 28 32 63 23
24 42 50 42 58 0 20 -41 42 -71 37 -19 -2 -24 -9 -24 -32 0 -16 6 -30 13 -32
7 -1 8 0 2 3 -5 2 -10 16 -10 29 0 27 26 32 61 14 28 -16 24 -28 -26 -75 -43
-39 -45 -44 -35 -71 6 -15 9 -38 6 -49 -3 -12 1 -30 9 -41 7 -11 15 -40 17
-65 5 -68 29 -60 53 17 0 1 15 5 32 9 28 6 33 4 33 -12 0 -11 6 -28 14 -38 13
-18 14 -17 29 6 9 14 19 39 23 56 3 17 16 36 28 42 18 10 18 11 1 5 -11 -3
-24 -7 -30 -8 -5 -1 -20 -8 -32 -14 -13 -7 -23 -9 -23 -5 0 4 -4 2 -8 -5 -5
-7 -25 -15 -46 -19 -30 -5 -41 -1 -61 17 -55 51 -18 87 79 76 74 -8 154 -22
182 -31 23 -7 69 26 105 77 22 30 22 31 4 79 -11 33 -15 61 -11 84 4 19 5 35
3 35 -2 0 -13 -13 -25 -30z m-140 -90 c-8 -22 -9 -21 -25 19 -23 56 -21 60 8
30 21 -20 24 -30 17 -49z m105 29 c33 -12 73 -48 73 -64 0 -7 -16 -33 -35 -59
-41 -53 -74 -60 -112 -24 -26 24 -30 74 -12 127 12 34 35 40 86 20z m-142
-241 c-4 -13 -9 -31 -11 -40 -8 -28 -21 -21 -26 12 -3 21 0 34 11 40 26 15 33
12 26 -12z m-140 -18 c3 -6 3 -20 0 -31 -6 -17 -9 -19 -16 -8 -12 19 -11 49 0
49 6 0 13 -5 16 -10z"/>
<path d="M360 730 c0 -5 7 -10 16 -10 8 0 12 5 9 10 -3 6 -10 10 -16 10 -5 0
-9 -4 -9 -10z"/>
<path d="M440 729 c0 -5 5 -7 10 -4 6 3 10 8 10 11 0 2 -4 4 -10 4 -5 0 -10
-5 -10 -11z"/>
<path d="M454 689 c-17 -19 -33 -20 -78 -3 -9 3 -16 1 -16 -4 0 -6 16 -14 36
-18 30 -6 40 -3 62 20 15 14 24 26 21 26 -3 0 -14 -9 -25 -21z"/>
<path d="M2594 856 c-24 -38 -38 -107 -23 -120 9 -8 10 -7 6 6 -8 22 20 118
35 118 15 0 2 -91 -14 -101 -7 -5 4 -7 25 -6 30 2 34 4 22 13 -10 7 -15 28
-15 57 0 55 -13 67 -36 33z"/>
<path d="M830 845 c-24 -64 -24 -74 4 -71 14 2 26 -2 26 -8 0 -7 3 -6 8 2 9
14 -8 102 -21 102 -4 0 -12 -11 -17 -25z m21 -58 c-17 -17 -24 -2 -15 35 l7
33 10 -28 c6 -20 6 -32 -2 -40z"/>
<path d="M912 823 c-11 -26 -18 -52 -14 -57 3 -5 9 -1 13 10 6 15 8 12 8 -13
1 -17 4 -38 7 -46 3 -9 -4 -25 -15 -36 -30 -30 -47 -27 -27 4 16 25 12 32 -11
17 -7 -4 -11 -18 -8 -30 5 -27 -5 -28 -39 -1 -20 16 -26 29 -26 60 0 27 -4 38
-11 33 -7 -4 -9 -22 -6 -44 4 -33 2 -39 -19 -49 -24 -11 -34 -51 -13 -51 6 0
9 -6 6 -12 -2 -7 -1 -22 4 -33 7 -17 8 -16 8 8 1 31 15 35 30 10 10 -16 10
-16 11 2 0 27 19 45 46 45 13 0 36 11 51 24 27 23 28 28 28 115 0 50 -1 91 -1
91 -1 0 -11 -21 -22 -47z m-89 -170 c12 -11 -14 -33 -39 -33 -25 0 -39 14 -29
30 7 11 58 14 68 3z"/>
<path d="M2716 841 c-9 -10 -26 -42 -37 -70 -17 -47 -18 -52 -3 -49 11 2 22
-8 30 -28 17 -41 2 -62 -47 -70 -46 -8 -95 31 -105 82 -3 18 -10 32 -14 29 -8
-5 -2 -36 15 -78 9 -22 56 -47 90 -47 22 0 25 -4 25 -36 0 -21 -4 -33 -10 -29
-5 3 -10 13 -10 21 0 8 -5 14 -11 14 -13 0 -5 -13 38 -68 19 -23 33 -48 30
-55 -2 -6 -14 5 -27 26 -12 20 -26 37 -31 37 -12 0 -11 -14 1 -26 6 -6 8 -18
4 -28 -5 -13 -9 -14 -20 -5 -12 9 -14 7 -12 -11 2 -17 -3 -23 -21 -26 -62 -10
-70 60 -14 118 20 21 34 40 31 43 -10 10 -88 -85 -88 -108 0 -31 27 -67 51
-67 15 0 19 -7 19 -32 0 -18 5 -40 10 -48 16 -24 40 16 40 66 0 23 3 50 6 59
6 14 9 14 30 -6 30 -28 46 -18 33 21 -6 16 -17 34 -25 41 -16 13 -20 109 -5
109 16 0 41 31 41 50 0 10 -11 31 -24 47 l-23 28 23 50 23 50 -5 -40 c-3 -22
-8 -49 -10 -60 -4 -16 -3 -17 5 -4 10 16 27 119 19 119 -3 0 -13 -8 -22 -19z
m-76 -443 c0 -13 -3 -34 -7 -46 -4 -18 -8 -20 -14 -10 -10 16 -12 62 -2 71 13
14 23 7 23 -15z"/>
<path d="M1210 820 c-6 -12 -8 -30 -4 -42 4 -13 1 -24 -7 -29 -11 -7 -10 -9 4
-9 9 0 17 7 17 17 0 13 3 14 12 5 14 -14 -7 -96 -22 -87 -5 3 -7 13 -4 23 5
14 4 15 -5 2 -8 -12 -14 -13 -30 -3 -11 7 -22 9 -25 4 -8 -12 4 -21 31 -21 13
0 23 -4 23 -10 0 -18 -56 -11 -78 10 -12 11 -25 32 -28 45 -3 14 -10 25 -16
25 -11 0 -2 -36 18 -67 16 -25 52 -38 89 -31 22 5 25 1 30 -31 3 -20 13 -64
21 -98 19 -82 18 -140 -4 -183 -22 -45 -49 -51 -59 -13 -4 15 -8 88 -7 161 1
72 -3 132 -7 132 -5 0 -9 -18 -9 -40 0 -22 -9 -62 -19 -90 -21 -55 -20 -65 3
-22 15 26 15 25 16 -44 0 -111 28 -162 67 -123 8 8 14 0 21 -32 l11 -44 1 60
c1 33 3 95 3 138 1 42 3 77 4 77 1 0 9 -12 17 -27 10 -18 15 -22 16 -12 0 9
-11 28 -24 42 -34 36 -52 143 -31 183 19 37 19 83 0 90 -18 7 -20 35 -3 52 9
9 9 12 0 12 -6 0 -16 -9 -22 -20z"/>
<path d="M2110 821 c-5 -11 -10 -33 -10 -50 0 -16 -7 -36 -15 -45 -19 -18 -19
-27 -1 -20 7 3 16 -2 19 -10 4 -9 11 -16 17 -16 6 0 4 7 -4 16 -18 17 -21 34
-6 34 5 0 7 7 4 15 -9 21 5 85 17 85 7 0 8 -17 4 -50 -5 -34 -3 -50 4 -50 7 0
11 22 11 55 0 42 -4 55 -15 55 -8 0 -19 -9 -25 -19z"/>
<path d="M1117 823 c-11 -10 -8 -43 3 -43 6 0 10 11 10 25 0 26 -2 29 -13 18z"/>
<path d="M2195 799 c-14 -17 -23 -34 -20 -37 3 -3 6 -3 8 -1 38 51 47 60 47
50 0 -7 -7 -25 -16 -42 -12 -24 -19 -29 -37 -23 -20 5 -20 5 -5 -7 9 -8 20
-30 23 -50 9 -50 -14 -73 -68 -66 -47 6 -77 32 -77 66 0 18 -3 22 -11 14 -19
-19 -1 -61 32 -79 19 -10 48 -14 75 -12 44 3 54 -6 54 -52 0 -13 -1 -13 -10 0
-8 11 -9 8 -4 -13 8 -34 -3 -97 -18 -97 -7 0 -8 19 -3 58 4 38 3 54 -3 47 -9
-9 -17 -70 -13 -102 2 -20 29 -15 41 6 5 11 11 32 11 48 l1 28 8 -30 c4 -16 5
-50 2 -73 -3 -24 -1 -47 4 -50 6 -4 22 -29 38 -55 29 -50 32 -92 6 -92 -10 0
-22 24 -35 72 -22 76 -35 101 -35 65 0 -33 -21 -38 -46 -9 -28 33 -41 123 -27
189 9 45 0 70 -10 31 -21 -77 -12 -176 21 -223 14 -20 16 -38 11 -94 -9 -102
7 -165 42 -166 18 0 32 37 37 95 4 60 6 64 19 45 20 -28 41 -25 49 7 5 19 -1
41 -25 83 -20 37 -31 72 -31 96 0 22 -7 72 -15 113 -9 40 -16 76 -17 80 -1 3
4 18 10 33 6 16 9 41 6 57 -4 19 0 38 10 52 17 25 22 69 7 69 -5 0 -21 -14
-36 -31z m13 -536 c4 -61 -12 -143 -29 -143 -20 0 -31 56 -25 129 9 112 46
121 54 14z"/>
<path d="M1566 769 c-7 -44 1 -68 10 -32 4 14 12 20 22 17 16 -5 16 -5 0 5
-10 7 -14 19 -11 31 3 11 1 20 -5 20 -5 0 -12 -19 -16 -41z"/>
<path d="M1153 783 c-12 -2 -27 -11 -34 -20 -11 -13 -8 -13 26 1 39 17 56 27
39 25 -5 -1 -19 -4 -31 -6z"/>
<path d="M1702 765 c-10 -21 -16 -24 -42 -19 -74 15 -109 -94 -42 -131 15 -8
21 -14 15 -15 -20 0 -43 -55 -49 -119 -6 -54 -5 -60 16 -71 24 -13 23 -27 -1
-87 -12 -30 -11 -34 11 -58 13 -13 38 -27 56 -31 38 -7 48 -25 29 -50 -9 -13
-10 -23 -3 -31 15 -19 23 -16 63 18 40 36 44 63 13 96 -18 19 -20 28 -12 50 5
16 21 32 36 37 23 8 30 6 46 -14 23 -28 47 -22 64 16 11 23 10 28 -11 45 -13
11 -37 19 -55 18 -30 -1 -29 -1 9 -10 53 -13 62 -23 45 -54 -17 -32 -34 -32
-48 0 -13 29 -22 31 -63 9 -29 -15 -32 -14 -65 11 -20 15 -34 35 -34 47 0 20
1 20 19 4 10 -9 35 -19 55 -23 45 -7 58 16 33 59 -9 17 -17 38 -17 47 0 10
-11 35 -26 56 -25 37 -25 37 -5 52 28 19 26 45 -4 81 -21 25 -23 34 -15 61 10
37 -2 42 -18 6z m-1 -48 c45 -30 61 -74 34 -93 -28 -21 -87 -18 -113 6 -26 24
-28 57 -6 88 19 28 42 28 85 -1z m34 -154 c33 -49 33 -78 0 -38 -13 17 -24 27
-25 24 0 -4 18 -29 40 -55 41 -50 51 -84 25 -84 -33 0 -72 30 -90 69 -10 23
-22 41 -27 41 -11 0 -10 -7 7 -41 12 -22 13 -34 5 -49 -11 -21 6 -46 57 -80
17 -11 21 -21 17 -38 -6 -19 -12 -22 -33 -18 -25 5 -25 5 -3 -6 24 -12 31 -44
7 -35 -8 4 -17 2 -19 -2 -9 -14 -53 0 -76 24 -20 22 -21 25 -6 53 20 40 20 76
0 93 -13 11 -15 26 -11 72 7 77 27 107 72 107 28 0 39 -6 60 -37z m33 -305
c20 -20 13 -55 -14 -77 -28 -22 -54 -28 -54 -12 0 6 5 13 10 16 6 3 10 15 10
26 0 20 20 59 30 59 3 0 11 -5 18 -12z"/>
<path d="M1620 700 c0 -5 5 -10 10 -10 6 0 10 5 10 10 0 6 -4 10 -10 10 -5 0
-10 -4 -10 -10z"/>
<path d="M1680 689 c0 -5 5 -7 10 -4 6 3 10 8 10 11 0 2 -4 4 -10 4 -5 0 -10
-5 -10 -11z"/>
<path d="M1632 648 c19 -28 47 -33 73 -14 17 14 18 17 5 26 -8 5 -26 9 -40 8
-24 -1 -24 -1 3 -5 30 -5 36 -20 10 -30 -10 -4 -23 2 -34 15 -23 29 -36 28
-17 0z"/>
<path d="M1733 470 c-13 -5 -23 -12 -23 -15 0 -9 16 -5 36 10 22 16 19 18 -13
5z"/>
<path d="M880 740 c0 -5 5 -10 10 -10 6 0 10 5 10 10 0 6 -4 10 -10 10 -5 0
-10 -4 -10 -10z"/>
<path d="M1135 740 c-3 -5 -1 -10 4 -10 6 0 11 5 11 10 0 6 -2 10 -4 10 -3 0
-8 -4 -11 -10z"/>
<path d="M2595 720 c-3 -5 -1 -10 4 -10 6 0 11 5 11 10 0 6 -2 10 -4 10 -3 0
-8 -4 -11 -10z"/>
<path d="M2140 702 c0 -12 19 -26 26 -19 2 2 -2 10 -11 17 -9 8 -15 8 -15 2z"/>
<path d="M2645 701 c-3 -5 -1 -12 5 -16 5 -3 10 1 10 9 0 18 -6 21 -15 7z"/>
<path d="M2590 676 c0 -21 27 -38 50 -31 11 3 20 11 20 16 0 5 -9 4 -20 -3
-17 -11 -22 -10 -30 2 -5 8 -6 18 -4 22 3 4 0 8 -5 8 -6 0 -11 -6 -11 -14z"/>
<path d="M2128 643 c12 -2 30 -2 40 0 9 3 -1 5 -23 4 -22 0 -30 -2 -17 -4z"/>
<path d="M867 624 c-6 -10 9 -42 16 -34 3 3 1 14 -3 24 -3 11 -9 15 -13 10z"/>
<path d="M836 612 c-2 -4 -1 -14 5 -22 7 -12 9 -10 9 8 0 23 -5 28 -14 14z"/>
<path d="M161 574 c0 -11 3 -14 6 -6 3 7 2 16 -1 19 -3 4 -6 -2 -5 -13z"/>
<path d="M1521 514 c0 -11 3 -14 6 -6 3 7 2 16 -1 19 -3 4 -6 -2 -5 -13z"/>
<path d="M1180 251 c0 -11 -3 -28 -6 -38 -4 -14 -4 -15 4 -3 17 27 24 60 13
60 -6 0 -11 -9 -11 -19z"/>
</g>
</svg>
