<?xml version="1.0" standalone="no"?>
<!DOCTYPE svg PUBLIC "-//W3C//DTD SVG 20010904//EN"
 "http://www.w3.org/TR/2001/REC-SVG-20010904/DTD/svg10.dtd">
<svg version="1.0" xmlns="http://www.w3.org/2000/svg"
 width="300.000000pt" height="100.000000pt" viewBox="0 0 300.000000 100.000000"
 preserveAspectRatio="xMidYMid meet">
<metadata>
Created by potrace 1.10, written by Peter Selinger 2001-2011
</metadata>
<g transform="translate(0.000000,100.000000) scale(0.100000,-0.100000)"
fill="#000000" stroke="none">
<path d="M2811 755 c-27 -31 -36 -35 -79 -35 -35 0 -57 6 -76 21 -41 32 -51
13 -27 -52 12 -30 21 -72 21 -94 0 -22 6 -51 13 -65 12 -23 10 -26 -18 -40
-37 -19 -102 -103 -117 -152 -13 -44 -16 -45 -47 -17 l-22 21 20 22 c18 19 41
67 41 85 0 5 -12 25 -26 46 -21 31 -25 49 -24 94 1 31 2 60 1 65 -2 15 -34
-18 -47 -50 -11 -27 -20 -33 -59 -38 -54 -9 -61 -5 -81 42 -15 36 -16 36 -30
17 -8 -11 -12 -25 -10 -32 3 -7 -3 -17 -12 -23 -12 -7 -14 -12 -5 -17 6 -5 13
-40 15 -78 2 -39 7 -77 11 -85 6 -12 0 -15 -25 -15 -28 0 -36 -6 -50 -35 -10
-20 -18 -58 -18 -88 0 -44 -6 -61 -36 -105 -20 -28 -44 -60 -52 -69 -14 -16
-14 -18 0 -18 14 0 55 53 84 109 12 23 14 23 20 6 5 -11 2 -22 -7 -29 -28 -22
-79 -95 -71 -100 5 -3 27 18 48 47 37 48 43 52 89 57 28 3 67 16 87 28 l37 23
32 -35 c29 -34 69 -48 69 -26 0 6 -6 10 -13 10 -7 0 -27 15 -44 33 -26 27 -30
39 -28 76 2 39 6 45 36 58 30 13 34 12 59 -12 14 -14 31 -25 38 -25 7 0 12 -6
12 -14 0 -45 102 -73 148 -40 22 15 22 14 22 -25 0 -23 5 -41 10 -41 6 0 10
24 10 54 0 34 5 58 14 65 16 13 20 9 30 -31 3 -16 11 -28 17 -28 7 0 9 9 5 23
-18 62 -18 76 2 104 23 33 35 68 36 102 1 19 8 27 34 33 40 11 72 59 72 109 0
27 -8 43 -34 68 -33 32 -34 37 -29 82 7 59 -3 62 -46 14z m21 -47 c-6 -6 -15
-7 -22 -3 -8 5 -6 13 7 27 16 18 18 19 21 3 2 -9 -1 -22 -6 -27z m-166 -1 c3
-8 17 -11 39 -9 56 7 100 -6 149 -44 39 -29 46 -40 46 -69 0 -21 -9 -44 -24
-62 -22 -25 -30 -28 -84 -27 -100 1 -134 43 -118 145 4 25 3 38 -3 34 -9 -5
-31 23 -31 39 0 12 21 6 26 -7z m-211 -197 c44 -43 47 -84 8 -131 -38 -45 -81
-61 -127 -48 -49 13 -75 68 -76 154 l0 60 80 0 c77 -1 81 -2 115 -35z m306
-37 c53 -10 37 -78 -42 -170 -64 -74 -109 -91 -157 -57 -40 27 -22 101 45 182
40 49 67 64 102 56 13 -3 36 -8 52 -11z m-481 -133 c5 -8 23 -21 42 -29 24
-12 34 -24 36 -44 2 -15 -1 -27 -6 -27 -5 0 -12 -8 -14 -18 -6 -22 -65 -52
-101 -52 -14 0 -33 7 -41 16 -20 20 -21 93 -1 140 13 31 18 35 45 32 17 -2 35
-10 40 -18z"/>
<path d="M2086 725 c-9 -13 -16 -28 -16 -33 0 -5 -14 -12 -31 -16 -19 -3 -53
-28 -89 -63 -54 -54 -59 -62 -65 -116 -6 -54 -5 -59 24 -87 17 -18 40 -30 55
-30 14 0 26 -4 26 -10 0 -5 7 -10 15 -10 23 0 18 -22 -16 -63 -22 -27 -38 -37
-60 -37 -34 0 -45 28 -35 96 7 54 -9 59 -23 7 -12 -44 1 -108 24 -117 11 -4
15 -20 15 -55 0 -27 5 -53 10 -56 6 -4 10 15 10 50 0 35 4 54 10 50 6 -3 10
-19 10 -36 0 -16 5 -29 11 -29 6 0 9 17 7 41 -4 59 18 62 24 4 6 -45 13 -63
23 -54 2 3 0 30 -4 60 -8 46 -6 59 11 86 11 18 17 41 14 51 -5 14 3 20 41 30
31 9 60 27 90 56 38 38 43 48 42 87 0 30 -10 60 -30 94 -16 28 -37 67 -46 88
-19 44 -25 45 -47 12z m44 -57 c0 -3 -9 -4 -20 -1 -21 6 -24 12 -13 38 5 15 8
14 19 -6 7 -13 13 -27 14 -31z m5 -34 c32 -21 55 -64 55 -103 0 -66 -92 -130
-188 -131 -44 0 -57 5 -78 26 -18 18 -24 32 -20 47 3 12 6 35 6 51 0 30 44 79
105 117 34 21 81 19 120 -7z"/>
<path d="M1910 678 c-1 -13 -7 -34 -15 -48 -17 -30 -18 -40 -4 -40 6 0 18 18
26 40 13 33 19 38 34 30 28 -16 32 6 4 24 -33 22 -45 20 -45 -6z"/>
<path d="M1230 660 c0 -10 -6 -31 -12 -46 -10 -22 -10 -28 0 -32 17 -5 16 -92
-2 -92 -7 0 -25 -9 -39 -20 -32 -26 -37 -25 -37 3 0 13 11 34 25 47 32 30 32
53 -1 79 -37 29 -76 28 -72 -1 2 -12 9 -24 17 -26 10 -3 12 0 8 12 -9 22 6 20
34 -3 l24 -20 -29 -27 c-24 -23 -28 -32 -23 -66 6 -43 39 -77 76 -78 22 0 23
-3 18 -43 -3 -23 -2 -49 3 -57 11 -18 11 -19 15 43 2 33 8 52 21 62 24 18 40
19 26 2 -14 -17 -2 -239 13 -235 11 3 12 15 2 113 -4 44 -3 62 3 50 5 -11 9
-32 9 -46 1 -15 8 -32 16 -39 19 -15 32 -6 18 12 -9 11 -43 152 -43 177 0 3
31 6 69 6 107 0 138 41 87 116 -21 31 -23 41 -16 75 13 52 12 54 -5 54 -8 0
-22 -14 -31 -31 -12 -24 -20 -30 -37 -25 -12 3 -39 6 -60 6 -30 0 -40 5 -49
25 -13 30 -28 33 -28 5z m150 -68 c22 -11 35 -24 35 -37 0 -11 6 -20 14 -20
23 0 38 -32 25 -52 -25 -40 -184 -38 -184 2 0 8 -5 15 -11 15 -6 0 -9 19 -8
48 2 37 7 48 24 54 36 11 69 8 105 -10z m-100 -152 c0 -23 -64 -44 -92 -29
-26 14 -22 27 13 48 29 18 34 18 55 4 13 -8 24 -19 24 -23z"/>
<path d="M1568 622 c-26 -87 -28 -116 -12 -147 8 -16 11 -31 7 -35 -4 -3 -41
-19 -80 -34 -40 -15 -73 -32 -73 -37 0 -5 7 -26 15 -46 8 -19 15 -48 15 -64 0
-16 4 -29 9 -29 6 0 11 -17 13 -37 2 -20 9 -38 16 -41 9 -3 11 6 6 36 -4 25
-2 42 5 46 7 5 11 -6 11 -33 0 -23 5 -41 10 -41 6 0 10 16 10 35 0 27 4 35 18
35 10 0 23 5 29 11 8 8 13 2 18 -23 9 -42 14 -50 25 -43 6 3 1 29 -10 58 -11
30 -16 55 -11 60 5 5 12 -4 16 -22 6 -29 21 -48 31 -39 2 3 -3 21 -11 41 -8
20 -15 64 -15 97 0 57 1 60 19 50 33 -17 113 -12 149 10 34 21 41 48 23 92 -5
13 -15 51 -22 86 -6 34 -16 62 -20 62 -5 0 -9 -5 -9 -11 0 -6 -9 -23 -20 -37
-18 -22 -27 -26 -68 -23 -50 3 -62 12 -62 48 0 43 -16 31 -32 -25z m200 -53
c-2 -4 -12 -1 -22 6 -16 12 -17 17 -6 31 13 14 15 14 22 -7 5 -12 7 -26 6 -30z
m-174 17 c-4 -11 5 -13 40 -9 25 3 53 2 63 -2 10 -5 21 -8 25 -7 3 1 20 -11
37 -27 64 -60 20 -118 -81 -109 -73 8 -103 34 -105 94 -2 57 5 87 17 79 5 -3
7 -12 4 -19z m-4 -198 c-4 -29 -13 -72 -21 -95 -14 -43 -14 -43 -61 -43 -45 0
-48 2 -48 25 0 15 -7 39 -15 55 -18 34 -17 35 79 70 31 12 56 26 56 31 0 5 4
9 8 9 4 0 5 -24 2 -52z"/>
<path d="M390 626 c0 -25 5 -48 10 -51 6 -4 10 9 10 32 0 27 3 34 9 24 5 -8 7
-36 4 -62 -4 -38 -1 -53 16 -77 28 -40 15 -49 -85 -64 -114 -16 -163 2 -129
49 11 15 27 18 104 18 50 0 91 3 91 7 0 20 -150 23 -192 4 -14 -7 -18 -3 -18
16 0 13 7 34 16 46 19 27 8 46 -32 56 -31 8 -50 -6 -57 -41 -6 -32 1 -53 17
-53 8 0 11 12 8 35 -4 32 -2 35 23 35 22 0 26 -3 19 -17 -4 -10 -9 -46 -11
-80 -2 -70 9 -90 58 -100 34 -6 33 -4 14 -50 -17 -41 -11 -58 11 -29 12 17 18
43 16 67 -1 3 26 10 59 15 l60 10 -7 -64 c-5 -53 -4 -64 7 -60 10 3 14 22 14
64 0 53 7 73 26 74 4 0 9 -18 13 -40 3 -22 11 -40 17 -40 11 0 9 20 -7 84 -6
25 -5 26 41 26 38 0 52 5 76 29 35 36 36 48 4 95 -14 20 -25 48 -25 61 0 16
-6 25 -15 25 -8 0 -15 -7 -15 -16 0 -12 -7 -15 -27 -11 -15 3 -36 1 -46 -5
-15 -7 -24 -5 -41 11 -32 30 -36 27 -36 -23z m148 -39 c10 -20 19 -26 32 -22
30 9 33 -33 5 -61 -50 -50 -135 -20 -135 48 0 67 71 92 98 35z"/>
<path d="M830 568 c0 -18 -7 -46 -15 -62 -22 -41 -18 -53 8 -28 13 12 31 22
40 22 9 0 17 5 17 10 0 6 7 10 15 10 25 0 85 -33 85 -47 0 -8 8 -13 18 -11 12
2 17 -4 17 -22 0 -20 -8 -27 -40 -38 -72 -24 -134 3 -121 52 7 28 -9 45 -18
20 -10 -25 -7 -59 6 -72 7 -7 8 -12 3 -12 -6 0 -3 -4 5 -10 11 -7 8 -11 -15
-21 -39 -15 -176 -23 -194 -11 -43 30 51 71 121 54 35 -9 61 -1 40 12 -21 13
-94 17 -124 7 l-33 -11 38 33 c45 39 49 80 10 85 -13 2 -23 -1 -23 -7 0 -6 7
-11 15 -11 27 0 16 -26 -24 -58 -21 -17 -44 -45 -49 -62 -15 -42 12 -70 68
-70 49 0 51 -14 15 -86 -27 -53 -30 -64 -17 -64 11 0 50 79 58 117 5 25 12 32
38 36 17 3 39 8 49 12 10 4 17 4 15 -1 -8 -26 124 -175 137 -155 3 6 -7 23
-24 37 -29 24 -101 115 -101 128 0 19 58 0 114 -39 37 -25 71 -45 76 -45 23 0
6 17 -55 55 -36 22 -72 45 -80 50 -11 7 -3 10 34 11 64 1 101 24 101 64 0 18
-8 34 -22 44 -20 14 -21 19 -10 53 14 45 -2 71 -18 29 -5 -15 -10 -32 -10 -38
0 -6 -9 -7 -22 -3 -13 4 -39 8 -58 9 -39 1 -50 10 -50 44 0 12 -4 22 -10 22
-5 0 -10 -15 -10 -32z"/>
<path d="M317 348 c-2 -24 -8 -51 -12 -60 -4 -11 -3 -18 4 -18 15 0 31 43 31
86 0 48 -16 42 -23 -8z"/>
<path d="M1186 344 c-6 -24 -2 -43 8 -33 11 10 17 59 8 59 -5 0 -13 -12 -16
-26z"/>
<path d="M633 250 c-50 -53 -61 -70 -46 -70 15 0 113 109 104 115 -5 3 -31
-18 -58 -45z"/>
<path d="M2025 275 c3 -14 7 -37 11 -51 3 -18 8 -24 15 -17 7 7 7 24 -1 52
-12 44 -34 58 -25 16z"/>
<path d="M2557 194 c-4 -4 -7 -17 -7 -29 0 -12 -7 -30 -15 -41 -18 -24 -19
-34 -1 -34 17 0 50 90 38 102 -5 5 -11 5 -15 2z"/>
<path d="M2600 144 c0 -55 16 -50 22 6 2 28 0 40 -9 40 -9 0 -13 -15 -13 -46z"/>
<path d="M2330 158 c0 -27 21 -88 30 -88 14 0 12 25 -4 65 -15 36 -26 45 -26
23z"/>
</g>
</svg>
